<svg width="884" height="525" viewBox="0 0 884 525" fill="none" xmlns="http://www.w3.org/2000/svg">
<g id="undraw_ride_a_bicycle_re_6tjy 1">
<path id="Vector" d="M453.873 335.374L446.358 335.413L446.285 329.064L453.799 329.025L453.873 335.374Z" fill="white"/>
<g id="woman-bike">
<path id="Vector_2" d="M537.264 325.023L540.085 322.317L488.534 267.909L397.35 241.005L353.174 320.891L356.593 322.822L399.262 245.662L486.443 271.386L537.264 325.023Z" fill="#F58E8E"/>
<path id="Vector_3" d="M427.395 310.917L421.99 309.541L424.214 286.412L432.191 288.444L427.395 310.917Z" fill="#FFB6B6"/>
<path id="Vector_4" d="M429.87 304.27L421.413 300.175L420 304.08L409.606 306.688C409.093 306.816 408.633 307.115 408.294 307.541C407.955 307.966 407.754 308.496 407.722 309.053C407.689 309.61 407.826 310.164 408.112 310.636C408.398 311.107 408.819 311.471 409.313 311.673L419.616 315.901L422.79 312.767L422.085 316.914L425.97 318.508L429.87 304.27Z" fill="#2F2E41"/>
<path id="Vector_5" d="M453.086 336.374C449.031 336.395 445.702 332.939 445.653 328.656C445.603 324.372 448.851 320.883 452.907 320.862C456.963 320.841 460.291 324.297 460.341 328.58C460.39 332.864 457.142 336.353 453.086 336.374Z" fill="#3F3D56"/>
<path id="Vector_6" d="M475.803 310.717L471.524 314.446L455.637 298.363L461.953 292.86L475.803 310.717Z" fill="#FFB6B6"/>
<path id="Vector_7" d="M475.969 307.652L468.58 313.52L471.163 316.72L468.44 327.627C468.305 328.166 468.338 328.737 468.532 329.258C468.727 329.778 469.073 330.221 469.521 330.52C469.969 330.82 470.495 330.961 471.022 330.924C471.549 330.886 472.05 330.672 472.451 330.311L480.819 322.795L479.706 318.334L482.825 320.994L485.98 318.16L475.969 307.652Z" fill="#2F2E41"/>
<path id="Vector_8" d="M475.938 335.175L487.796 324.185C488.621 323.42 489.122 322.338 489.189 321.177C489.256 320.016 488.883 318.87 488.153 317.993C487.422 317.116 486.394 316.578 485.294 316.499C484.194 316.419 483.112 316.804 482.287 317.569L470.429 328.558C470.02 328.937 469.686 329.397 469.447 329.914C469.207 330.43 469.067 330.992 469.034 331.567C469 332.142 469.075 332.72 469.253 333.266C469.43 333.813 469.708 334.318 470.07 334.752C470.432 335.187 470.871 335.542 471.361 335.799C471.852 336.055 472.385 336.207 472.93 336.247C473.475 336.286 474.021 336.211 474.537 336.027C475.054 335.843 475.53 335.554 475.938 335.175L475.938 335.175Z" fill="#3F3D56"/>
<path id="Vector_9" d="M407.52 316.643L421.89 323.779C422.89 324.275 424.034 324.333 425.068 323.94C426.103 323.547 426.945 322.735 427.408 321.682C427.871 320.629 427.917 319.422 427.537 318.326C427.157 317.23 426.382 316.336 425.382 315.839L411.012 308.704C410.011 308.207 408.868 308.149 407.833 308.542C406.798 308.935 405.957 309.748 405.494 310.801C405.031 311.854 404.984 313.061 405.364 314.156C405.744 315.252 406.52 316.147 407.52 316.643V316.643Z" fill="#3F3D56"/>
<path id="Vector_10" d="M459.207 326.311L498.106 326.112L498.155 330.292L459.256 330.491L459.207 326.311Z" fill="#9E9A9A"/>
<path id="Vector_11" d="M463.951 309.889L472.883 303.405L448.719 264.595C465.786 254.162 477.46 241.482 486.944 227.571C490.167 222.876 492.102 217.422 487.489 213.936C487.273 213.773 487.052 213.618 486.825 213.473C481.573 210.135 483.323 215.169 476.148 212.729L469.773 219.895L455.984 234.024L432.368 249.877C427.619 253.065 426.368 259.726 429.574 264.755C429.744 265.021 429.924 265.278 430.114 265.528L463.951 309.889Z" fill="#2F2E41"/>
<path id="Vector_12" d="M485.931 269.118L532.121 285.914L530.833 289.78L484.643 272.985L485.931 269.118Z" fill="#F58E8E"/>
<path id="Vector_13" d="M406.428 211.613C407.189 211.879 407.995 211.971 408.791 211.88C409.587 211.789 410.352 211.519 411.034 211.087C411.716 210.656 412.297 210.075 412.736 209.385C413.175 208.694 413.462 207.911 413.577 207.091L456.255 195.456L449.186 187.906L408.555 200.513C407.21 200.395 405.874 200.792 404.799 201.628C403.724 202.464 402.986 203.682 402.724 205.05C402.461 206.418 402.694 207.842 403.377 209.052C404.059 210.261 405.145 211.172 406.428 211.613L406.428 211.613Z" fill="#FFB6B6"/>
<path id="Vector_14" d="M407.102 201.346L410.884 202.587L398.45 244.06L394.668 242.82L407.102 201.346Z" fill="#9E9A9A"/>
<path id="Vector_15" d="M378.519 277.081L448.751 325.915L446.56 329.313L376.328 280.479L378.519 277.081Z" fill="#9E9A9A"/>
<path id="Vector_16" d="M479.044 252.027L494.877 251.946C495.979 251.94 497.031 251.481 497.801 250.67C498.571 249.859 498.997 248.762 498.983 247.62C498.97 246.479 498.52 245.387 497.731 244.583C496.942 243.78 495.88 243.332 494.777 243.338L478.944 243.419C477.842 243.425 476.79 243.884 476.02 244.695C475.25 245.506 474.825 246.603 474.838 247.744C474.851 248.886 475.302 249.978 476.091 250.781C476.879 251.584 477.942 252.032 479.044 252.027V252.027Z" fill="#1ECBE2"/>
<path id="Vector_17" d="M459.443 152.236C453.058 151.136 448.697 144.84 449.703 138.174C450.71 131.508 456.702 126.995 463.087 128.095C469.473 129.195 473.834 135.49 472.827 142.157C471.821 148.823 465.829 153.336 459.443 152.236Z" fill="#FFB6B6"/>
<path id="Vector_18" d="M390.165 256.592L403.049 227.631L402.869 227.545C401.948 227.1 400.952 226.847 399.939 226.8C398.926 226.753 397.916 226.913 396.965 227.271C396.015 227.629 395.143 228.177 394.4 228.886C393.656 229.594 393.056 230.448 392.633 231.399L386.191 245.879C385.768 246.83 385.531 247.859 385.493 248.908C385.454 249.956 385.616 251.004 385.968 251.991C386.321 252.977 386.857 253.884 387.546 254.659C388.235 255.433 389.064 256.061 389.985 256.505L390.165 256.592Z" fill="#3F3D56"/>
<path id="Vector_19" d="M421.473 290.882L433.044 297.958L444.78 253.082C464.656 252.804 483.01 250.405 497.935 243.23C502.991 240.82 505.18 234.503 502.823 229.122C502.713 228.87 502.594 228.623 502.466 228.381C499.48 222.8 493.778 219.543 488.686 213.753L463.868 223.411L465.735 230.353L437.555 231.963C431.888 232.287 427.611 237.409 428.003 243.405C428.024 243.721 428.058 244.037 428.104 244.351L421.473 290.882Z" fill="#2F2E41"/>
<path id="Vector_20" d="M468.612 152.071L461 156.258C460.578 156.435 460.222 156.744 459.98 157.142C459.738 157.54 459.623 158.007 459.65 158.479L457.75 166.757L450.907 182.182C450.907 182.182 449.172 190.381 452.753 198.096C456.334 205.811 464.283 225.048 464.283 225.048C469.467 237.521 510.72 227.657 499.818 217.078C498.52 215.819 491.188 205.167 488.543 204.567L481.627 166.248C481.277 164.225 480.5 162.304 479.351 160.623C478.202 158.941 476.71 157.542 474.982 156.524C473.938 155.922 472.973 155.567 472.316 155.754C470.818 156.124 470.068 152.607 468.612 152.071Z" fill="#1ECBE2"/>
<path id="Vector_21" d="M407.004 203.036C407.705 203.443 408.483 203.685 409.282 203.747C410.081 203.809 410.883 203.689 411.63 203.396C412.378 203.102 413.052 202.641 413.607 202.047C414.162 201.453 414.583 200.739 414.842 199.955L458.912 196.64L453.291 187.885L411.064 192.543C409.761 192.172 408.375 192.308 407.169 192.925C405.963 193.541 405.02 194.596 404.52 195.89C404.019 197.183 403.996 198.625 404.454 199.942C404.911 201.259 405.819 202.36 407.004 203.036V203.036Z" fill="#FFB6B6"/>
<g id="hair">
<path id="Vector_22" d="M453.049 131.956C454.827 132.857 456.813 131.527 458.344 130.208L457.796 130.7C460.511 133.471 461.785 137.444 462.411 141.35C463.037 145.253 463.113 149.241 463.9 153.117C464.688 156.989 466.314 160.883 469.344 163.269C473.403 166.465 478.994 166.293 483.967 165.348C484.033 165.334 484.095 165.324 484.161 165.31C482.816 161.263 482.264 156.98 482.54 152.717C483.881 156.998 486.157 160.9 489.188 164.111C492.485 163.181 495.702 161.973 498.809 160.499C500.819 159.543 502.983 158.232 503.537 155.994C504.093 153.774 502.789 151.434 501.049 150.02C499.309 148.606 497.174 147.862 495.193 146.85C493.214 145.844 491.256 144.413 490.461 142.266C488.627 137.326 493.817 131.698 491.782 126.841C490.779 124.452 488.329 123.142 486.026 122.13C482.511 120.589 478.902 119.297 475.224 118.263C471.995 117.355 468.624 116.645 465.337 117.209C462.05 117.774 458.833 119.846 457.655 123.103C455.682 123.789 453.587 124.564 452.323 126.293C451.06 128.019 451.167 131.003 453.049 131.956Z" fill="#2F2E41"/>
</g>
<path id="Vector_23" d="M386.682 246.333C384.314 245.443 383.434 241.703 384.718 237.98C386.001 234.258 388.962 231.962 391.33 232.852C393.699 233.743 394.578 237.483 393.295 241.205C392.011 244.928 389.051 247.224 386.682 246.333Z" fill="#1ECBE2"/>
<g id="front-wheel">
<path id="Vector_24" d="M352.445 369.265C360.826 369.221 368.99 366.69 375.903 361.991C382.817 357.291 388.171 350.636 391.287 342.865C394.404 335.095 395.143 326.558 393.412 318.335C391.68 310.112 387.556 302.572 381.56 296.668C375.565 290.764 367.967 286.762 359.728 285.167C351.489 283.573 342.979 284.457 335.273 287.709C327.568 290.962 321.014 296.435 316.439 303.438C311.865 310.44 309.476 318.657 309.574 327.05C309.719 338.301 314.313 349.063 322.35 356.977C330.388 364.891 341.211 369.31 352.445 369.265V369.265ZM351.498 288.324C359.102 288.285 366.563 290.504 372.936 294.702C379.308 298.901 384.307 304.889 387.3 311.91C390.292 318.93 391.144 326.669 389.748 334.146C388.352 341.623 384.77 348.503 379.456 353.916C374.142 359.329 367.333 363.032 359.892 364.556C352.451 366.081 344.711 365.359 337.65 362.481C330.59 359.603 324.527 354.699 320.228 348.389C315.929 342.078 313.587 334.645 313.498 327.03C313.39 316.821 317.33 307.012 324.454 299.756C331.578 292.5 341.303 288.389 351.498 288.324V288.324Z" fill="#3F3D56"/>
<path id="Vector_25" d="M311.982 329.655L394.474 329.227L394.483 330.013L311.991 330.441L311.982 329.655Z" fill="#3F3D56"/>
<path id="Vector_26" d="M352.582 368.434L349.385 287.004L350.399 284.742L353.596 366.172L352.582 368.434Z" fill="#3F3D56"/>
<path id="Vector_27" d="M382.087 355.796L322.922 301.702L321.874 299.588L381.038 353.682L382.087 355.796Z" fill="#3F3D56"/>
<path id="Vector_28" d="M323.442 356.684L379.882 296.248L380.449 296.79L324.009 357.225L323.442 356.684Z" fill="#3F3D56"/>
<path id="Vector_29" d="M351.664 343.43C343.372 343.473 336.572 336.877 336.476 328.696C336.381 320.516 343.025 313.849 351.317 313.806C359.609 313.763 366.409 320.359 366.505 328.54C366.601 336.72 359.956 343.387 351.664 343.43Z" fill="#3F3D56"/>
</g>
</g>
<g id="back-wheel">
<path id="Vector_30" d="M537.487 363.818C545.868 363.774 554.031 361.243 560.945 356.544C567.859 351.845 573.213 345.189 576.329 337.418C579.445 329.648 580.185 321.111 578.453 312.888C576.722 304.665 572.598 297.125 566.602 291.221C560.606 285.317 553.009 281.315 544.77 279.721C536.531 278.126 528.021 279.011 520.315 282.263C512.61 285.515 506.056 290.988 501.482 297.991C496.907 304.993 494.518 313.211 494.616 321.603C494.761 332.854 499.355 343.617 507.393 351.531C515.43 359.445 526.253 363.864 537.487 363.818V363.818ZM536.54 282.877C544.144 282.838 551.605 285.058 557.977 289.256C564.35 293.454 569.349 299.442 572.342 306.463C575.334 313.484 576.186 321.222 574.79 328.699C573.394 336.176 569.812 343.056 564.498 348.469C559.183 353.882 552.375 357.585 544.934 359.11C537.493 360.634 529.753 359.912 522.692 357.034C515.632 354.156 509.569 349.252 505.27 342.942C500.971 336.632 498.629 329.199 498.54 321.583C498.432 311.374 502.372 301.566 509.496 294.31C516.62 287.053 526.345 282.942 536.54 282.877V282.877Z" fill="#3F3D56"/>
<path id="Vector_31" d="M497.025 324.209L579.516 323.78L579.525 324.566L497.034 324.995L497.025 324.209Z" fill="#3F3D56"/>
<path id="Vector_32" d="M497.025 324.209L579.516 323.78L579.525 324.566L497.034 324.995L497.025 324.209Z" fill="#3F3D56"/>
<path id="Vector_33" d="M537.624 362.987L534.427 281.557L535.441 279.296L538.638 360.726L537.624 362.987Z" fill="#3F3D56"/>
<path id="Vector_34" d="M567.129 350.349L507.965 296.255L506.916 294.142L566.08 348.236L567.129 350.349Z" fill="#3F3D56"/>
<path id="Vector_35" d="M536.706 336.49C528.414 336.533 521.614 329.936 521.519 321.756C521.423 313.576 528.067 306.909 536.359 306.866C544.651 306.823 551.451 313.419 551.547 321.6C551.643 329.78 544.999 336.447 536.706 336.49Z" fill="#3F3D56"/>
<path id="Vector_36" d="M509.381 352.799L565.821 292.363L566.388 292.904L509.948 353.34L509.381 352.799Z" fill="#3F3D56"/>
</g>
</g>
</svg>
