<svg width="156" height="172" viewBox="0 0 156 172" fill="none" xmlns="http://www.w3.org/2000/svg">
<path d="M117.89 14.9989C117.873 12.3756 119.985 10.2347 122.608 10.217L124.97 10.2011L133.59 10.1429C136.213 10.1252 138.354 12.2374 138.372 14.8607L138.463 28.3319C138.48 30.9552 136.368 33.0961 133.745 33.1138L122.763 33.1879C120.14 33.2056 117.999 31.0934 117.981 28.4701L117.89 14.9989Z" stroke="#BFBEBE" stroke-width="0.5"/>
<path d="M125.337 10.0866L125.307 5.53052" stroke="#BFBEBE" stroke-width="0.5"/>
<path d="M125.307 5.64441L130.645 5.60839" stroke="#BFBEBE" stroke-width="0.5"/>
<path d="M130.46 5.49579L130.491 10.0519" stroke="#BFBEBE" stroke-width="0.5"/>
<path d="M132.654 33.2356C132.396 31.3964 132.212 27.7433 133.538 27.8448C134.864 27.9464 134.851 31.4718 134.679 33.2219" stroke="#BFBEBE" stroke-width="0.5"/>
<path d="M132.654 33.2356C132.396 31.3964 132.212 27.7433 133.538 27.8448C134.864 27.9464 134.851 31.4718 134.679 33.2219" stroke="#BFBEBE" stroke-width="0.5"/>
<path d="M125.292 33.2852C125.034 31.446 124.85 27.793 126.176 27.8945C127.502 27.996 127.489 31.5215 127.317 33.2716" stroke="#BFBEBE" stroke-width="0.5"/>
<path d="M128.605 33.2629C128.347 31.4237 128.163 27.7707 129.489 27.8722C130.815 27.9737 130.802 31.4992 130.63 33.2492" stroke="#BFBEBE" stroke-width="0.5"/>
<path d="M121.946 35.5145C121.949 36.0246 121.447 36.5105 120.73 36.5153C120.014 36.5202 119.505 36.0411 119.501 35.531C119.498 35.0209 120 34.535 120.717 34.5302C121.433 34.5253 121.943 35.0044 121.946 35.5145Z" stroke="#BFBEBE" stroke-width="0.5"/>
<path d="M125.259 35.4922C125.262 36.0023 124.76 36.4882 124.043 36.493C123.327 36.4978 122.817 36.0188 122.814 35.5087C122.811 34.9985 123.313 34.5127 124.03 34.5078C124.746 34.503 125.255 34.982 125.259 35.4922Z" stroke="#BFBEBE" stroke-width="0.5"/>
<path d="M136.302 35.4176C136.305 35.9277 135.803 36.4136 135.086 36.4185C134.369 36.4233 133.86 35.9442 133.857 35.4341C133.854 34.924 134.356 34.4381 135.073 34.4333C135.789 34.4285 136.298 34.9075 136.302 35.4176Z" stroke="#BFBEBE" stroke-width="0.5"/>
<path d="M132.989 35.44C132.992 35.9501 132.49 36.436 131.773 36.4408C131.057 36.4457 130.548 35.9666 130.544 35.4565C130.541 34.9464 131.043 34.4605 131.76 34.4557C132.476 34.4508 132.985 34.9299 132.989 35.44Z" stroke="#BFBEBE" stroke-width="0.5"/>
<rect x="119.446" y="33.6674" width="17.6229" height="0.414202" transform="rotate(-0.386602 119.446 33.6674)" stroke="#BFBEBE" stroke-width="0.414202"/>
<path d="M148.771 18.7651C148.775 19.2988 148.118 19.736 147.305 19.7414C146.492 19.7469 145.83 19.3187 145.826 18.7849C145.823 18.2512 146.479 17.814 147.292 17.8085C148.105 17.8031 148.768 18.2313 148.771 18.7651Z" fill="#BFBEBE"/>
<path d="M153.188 18.7352C153.192 19.269 152.536 19.7061 151.722 19.7116C150.909 19.7171 150.247 19.2888 150.244 18.7551C150.24 18.2213 150.896 17.7842 151.709 17.7787C152.523 17.7732 153.185 18.2015 153.188 18.7352Z" fill="#BFBEBE"/>
<path d="M142.718 21.8435C144.881 24.084 150.485 27.2034 155.601 21.7565" stroke="#BFBEBE"/>
<path d="M97.4553 7.41092C97.4545 6.0077 98.5914 4.86954 99.9946 4.86877L100.158 4.86868C102.781 4.86724 104.909 6.99271 104.91 9.61607L104.915 17.9655C104.916 20.0238 103.248 21.6932 101.19 21.6944C99.1317 21.6955 97.4622 20.0279 97.4611 17.9696L97.4553 7.41092Z" stroke="#BFBEBE" stroke-width="0.5"/>
<path d="M100.134 4.72063L100.132 1.3573" stroke="#BFBEBE" stroke-width="0.5"/>
<path d="M100.132 1.44135L102.156 1.44023" stroke="#BFBEBE" stroke-width="0.5"/>
<path d="M102.086 1.3562L102.088 4.71953" stroke="#BFBEBE" stroke-width="0.5"/>
<path d="M102.858 21.8433C102.764 20.4844 102.702 17.787 103.204 17.8683C103.707 17.9495 103.694 20.5519 103.625 21.8429" stroke="#BFBEBE" stroke-width="0.5"/>
<path d="M102.858 21.8433C102.764 20.4844 102.702 17.787 103.204 17.8683C103.707 17.9495 103.694 20.5519 103.625 21.8429" stroke="#BFBEBE" stroke-width="0.5"/>
<path d="M100.067 21.8448C99.9732 20.486 99.9113 17.7885 100.414 17.8698C100.916 17.9511 100.904 20.5534 100.834 21.8444" stroke="#BFBEBE" stroke-width="0.5"/>
<path d="M101.323 21.8442C101.229 20.4853 101.167 17.7879 101.67 17.8691C102.172 17.9504 102.159 20.5527 102.09 21.8438" stroke="#BFBEBE" stroke-width="0.5"/>
<path d="M98.6385 23.4746C98.6387 23.6897 98.5852 23.8725 98.5118 23.9933C98.4357 24.1185 98.3643 24.142 98.3308 24.142C98.2972 24.142 98.2258 24.1186 98.1496 23.9935C98.076 23.8728 98.0224 23.6901 98.0222 23.4749C98.0221 23.2597 98.0756 23.077 98.149 22.9562C98.2251 22.8309 98.2965 22.8075 98.33 22.8075C98.3636 22.8074 98.435 22.8308 98.5112 22.956C98.5847 23.0767 98.6384 23.2594 98.6385 23.4746Z" stroke="#BFBEBE" stroke-width="0.5"/>
<path d="M99.8944 23.4739C99.8945 23.689 99.841 23.8718 99.7676 23.9926C99.6915 24.1178 99.6201 24.1413 99.5866 24.1413C99.553 24.1413 99.4816 24.1179 99.4054 23.9928C99.3319 23.8721 99.2782 23.6894 99.2781 23.4742C99.2779 23.259 99.3314 23.0763 99.4048 22.9555C99.4809 22.8302 99.5523 22.8068 99.5858 22.8068C99.6194 22.8067 99.6908 22.8301 99.767 22.9553C99.8406 23.076 99.8942 23.2587 99.8944 23.4739Z" stroke="#BFBEBE" stroke-width="0.5"/>
<path d="M104.081 23.4716C104.081 23.6867 104.027 23.8695 103.954 23.9903C103.878 24.1155 103.806 24.139 103.773 24.139C103.739 24.139 103.668 24.1156 103.592 23.9905C103.518 23.8698 103.464 23.6871 103.464 23.4719C103.464 23.2568 103.518 23.074 103.591 22.9532C103.667 22.828 103.738 22.8045 103.772 22.8045C103.806 22.8045 103.877 22.8278 103.953 22.953C104.027 23.0737 104.08 23.2564 104.081 23.4716Z" stroke="#BFBEBE" stroke-width="0.5"/>
<path d="M102.825 23.4722C102.825 23.6874 102.771 23.8702 102.698 23.991C102.622 24.1162 102.55 24.1397 102.517 24.1397C102.483 24.1397 102.412 24.1163 102.336 23.9912C102.262 23.8705 102.209 23.6877 102.208 23.4726C102.208 23.2574 102.262 23.0746 102.335 22.9539C102.411 22.8286 102.483 22.8052 102.516 22.8051C102.55 22.8051 102.621 22.8285 102.697 22.9537C102.771 23.0744 102.825 23.2571 102.825 23.4722Z" stroke="#BFBEBE" stroke-width="0.5"/>
<rect x="97.9244" y="22.0991" width="6.5316" height="0.305757" transform="rotate(-0.0314817 97.9244 22.0991)" stroke="#BFBEBE" stroke-width="0.305757"/>
<path d="M108.998 11.2386C108.999 11.6326 108.749 11.9521 108.441 11.9523C108.132 11.9525 107.882 11.6332 107.882 11.2392C107.882 10.8452 108.132 10.5256 108.44 10.5255C108.748 10.5253 108.998 10.8446 108.998 11.2386Z" fill="#BFBEBE"/>
<path d="M110.673 11.2377C110.673 11.6317 110.423 11.9512 110.115 11.9514C109.807 11.9516 109.557 11.6323 109.556 11.2383C109.556 10.8443 109.806 10.5247 110.114 10.5245C110.422 10.5244 110.673 10.8436 110.673 11.2377Z" fill="#BFBEBE"/>
<path d="M106.697 13.4821C107.512 15.1463 109.63 17.4757 111.581 13.4794" stroke="#BFBEBE"/>
<path d="M77.8277 7.42172C77.8269 6.0185 78.9638 4.88034 80.367 4.87957L80.5299 4.87948C83.1533 4.87804 85.2811 7.00352 85.2825 9.62687L85.2871 17.9763C85.2883 20.0346 83.6206 21.704 81.5624 21.7052C79.5041 21.7063 77.8346 20.0387 77.8335 17.9804L77.8277 7.42172Z" stroke="#BFBEBE" stroke-width="0.5"/>
<path d="M80.5065 4.73143L80.5046 1.3681" stroke="#BFBEBE" stroke-width="0.5"/>
<path d="M80.5047 1.45215L82.528 1.45104" stroke="#BFBEBE" stroke-width="0.5"/>
<path d="M82.4582 1.367L82.46 4.73034" stroke="#BFBEBE" stroke-width="0.5"/>
<path d="M83.2302 21.8541C83.1364 20.4953 83.0745 17.7978 83.5768 17.8791C84.0792 17.9603 84.0667 20.5627 83.9976 21.8537" stroke="#BFBEBE" stroke-width="0.5"/>
<path d="M83.2302 21.8541C83.1364 20.4953 83.0745 17.7978 83.5768 17.8791C84.0792 17.9603 84.0667 20.5627 83.9976 21.8537" stroke="#BFBEBE" stroke-width="0.5"/>
<path d="M80.4394 21.8556C80.3456 20.4968 80.2837 17.7994 80.7861 17.8806C81.2884 17.9619 81.2759 20.5642 81.2069 21.8552" stroke="#BFBEBE" stroke-width="0.5"/>
<path d="M81.6953 21.855C81.6015 20.4961 81.5395 17.7987 82.0419 17.8799C82.5443 17.9612 82.5318 20.5635 82.4627 21.8546" stroke="#BFBEBE" stroke-width="0.5"/>
<path d="M79.0109 23.4854C79.0111 23.7005 78.9576 23.8833 78.8842 24.0041C78.8081 24.1293 78.7367 24.1528 78.7032 24.1528C78.6696 24.1528 78.5982 24.1294 78.522 24.0043C78.4484 23.8836 78.3948 23.7009 78.3946 23.4857C78.3945 23.2706 78.448 23.0878 78.5214 22.967C78.5975 22.8418 78.6689 22.8183 78.7024 22.8183C78.736 22.8182 78.8074 22.8416 78.8836 22.9668C78.9571 23.0875 79.0108 23.2702 79.0109 23.4854Z" stroke="#BFBEBE" stroke-width="0.5"/>
<path d="M80.2668 23.4847C80.2669 23.6998 80.2134 23.8826 80.14 24.0034C80.0639 24.1286 79.9925 24.1521 79.959 24.1521C79.9254 24.1521 79.854 24.1287 79.7778 24.0036C79.7043 23.8829 79.6506 23.7002 79.6505 23.485C79.6503 23.2699 79.7038 23.0871 79.7772 22.9663C79.8533 22.8411 79.9247 22.8176 79.9583 22.8176C79.9918 22.8175 80.0632 22.8409 80.1394 22.9661C80.213 23.0868 80.2667 23.2695 80.2668 23.4847Z" stroke="#BFBEBE" stroke-width="0.5"/>
<path d="M84.4529 23.4824C84.453 23.6975 84.3996 23.8803 84.3262 24.0011C84.2501 24.1263 84.1787 24.1498 84.1451 24.1498C84.1116 24.1498 84.0402 24.1264 83.964 24.0013C83.8904 23.8806 83.8367 23.6979 83.8366 23.4827C83.8365 23.2676 83.89 23.0848 83.9634 22.964C84.0395 22.8388 84.1109 22.8153 84.1444 22.8153C84.178 22.8153 84.2493 22.8386 84.3256 22.9638C84.3991 23.0845 84.4528 23.2672 84.4529 23.4824Z" stroke="#BFBEBE" stroke-width="0.5"/>
<path d="M83.1971 23.483C83.1972 23.6982 83.1437 23.881 83.0703 24.0018C82.9942 24.127 82.9229 24.1505 82.8893 24.1505C82.8558 24.1505 82.7844 24.1271 82.7081 24.002C82.6346 23.8813 82.5809 23.6985 82.5808 23.4834C82.5807 23.2682 82.6342 23.0854 82.7076 22.9647C82.7837 22.8394 82.855 22.816 82.8886 22.8159C82.9221 22.8159 82.9935 22.8393 83.0698 22.9645C83.1433 23.0852 83.197 23.2679 83.1971 23.483Z" stroke="#BFBEBE" stroke-width="0.5"/>
<rect x="78.2968" y="22.1099" width="6.5316" height="0.305757" transform="rotate(-0.0314817 78.2968 22.1099)" stroke="#BFBEBE" stroke-width="0.305757"/>
<path d="M89.3707 11.2494C89.3709 11.6434 89.1212 11.963 88.813 11.9631C88.5047 11.9633 88.2546 11.644 88.2544 11.25C88.2542 10.856 88.5039 10.5364 88.8122 10.5363C89.1204 10.5361 89.3705 10.8554 89.3707 11.2494Z" fill="#BFBEBE"/>
<path d="M91.0452 11.2485C91.0454 11.6425 90.7957 11.962 90.4874 11.9622C90.1791 11.9624 89.9291 11.6431 89.9289 11.2491C89.9286 10.8551 90.1784 10.5355 90.4866 10.5353C90.7949 10.5352 91.0449 10.8544 91.0452 11.2485Z" fill="#BFBEBE"/>
<path d="M87.0696 13.4929C87.8845 15.1571 90.0021 17.4865 91.9534 13.4902" stroke="#BFBEBE"/>
<g filter="url(#filter0_d_3_598)">
<path d="M95.842 33.4118C95.8412 32.0086 96.9781 30.8704 98.3813 30.8696L98.5442 30.8695C101.168 30.8681 103.295 32.9936 103.297 35.6169L103.301 43.9663C103.303 46.0246 101.635 47.6941 99.5766 47.6952C97.5184 47.6964 95.8489 46.0287 95.8478 43.9704L95.842 33.4118Z" stroke="#BFBEBE" stroke-width="0.5"/>
<path d="M98.5208 30.7215L98.5189 27.3582" stroke="#BFBEBE" stroke-width="0.5"/>
<path d="M98.519 27.4422L100.542 27.4411" stroke="#BFBEBE" stroke-width="0.5"/>
<path d="M100.472 27.3571L100.474 30.7204" stroke="#BFBEBE" stroke-width="0.5"/>
<path d="M101.244 47.8442C101.151 46.4853 101.089 43.7879 101.591 43.8692C102.093 43.9504 102.081 46.5528 102.012 47.8438" stroke="#BFBEBE" stroke-width="0.5"/>
<path d="M101.244 47.8442C101.151 46.4853 101.089 43.7879 101.591 43.8692C102.093 43.9504 102.081 46.5528 102.012 47.8438" stroke="#BFBEBE" stroke-width="0.5"/>
<path d="M98.4537 47.8458C98.3599 46.4869 98.298 43.7895 98.8003 43.8707C99.3027 43.952 99.2902 46.5543 99.2211 47.8453" stroke="#BFBEBE" stroke-width="0.5"/>
<path d="M99.7095 47.8451C99.6158 46.4862 99.5538 43.7888 100.056 43.87C100.559 43.9513 100.546 46.5536 100.477 47.8446" stroke="#BFBEBE" stroke-width="0.5"/>
<path d="M97.0252 49.4755C97.0253 49.6906 96.9719 49.8734 96.8985 49.9942C96.8224 50.1194 96.751 50.1429 96.7174 50.1429C96.6839 50.1429 96.6125 50.1195 96.5363 49.9944C96.4627 49.8737 96.409 49.6909 96.4089 49.4758C96.4088 49.2606 96.4623 49.0778 96.5357 48.9571C96.6118 48.8318 96.6832 48.8084 96.7167 48.8083C96.7503 48.8083 96.8216 48.8317 96.8979 48.9569C96.9714 49.0776 97.0251 49.2603 97.0252 49.4755Z" stroke="#BFBEBE" stroke-width="0.5"/>
<path d="M98.2811 49.4747C98.2812 49.6899 98.2277 49.8727 98.1543 49.9935C98.0782 50.1187 98.0068 50.1422 97.9733 50.1422C97.9397 50.1422 97.8683 50.1188 97.7921 49.9937C97.7185 49.873 97.6649 49.6902 97.6647 49.4751C97.6646 49.2599 97.7181 49.0771 97.7915 48.9564C97.8676 48.8311 97.939 48.8077 97.9725 48.8076C98.0061 48.8076 98.0775 48.831 98.1537 48.9562C98.2273 49.0769 98.2809 49.2596 98.2811 49.4747Z" stroke="#BFBEBE" stroke-width="0.5"/>
<path d="M102.467 49.4725C102.467 49.6876 102.414 49.8704 102.34 49.9912C102.264 50.1164 102.193 50.1399 102.159 50.1399C102.126 50.1399 102.054 50.1165 101.978 49.9914C101.905 49.8707 101.851 49.688 101.851 49.4728C101.851 49.2576 101.904 49.0749 101.978 48.9541C102.054 48.8288 102.125 48.8054 102.159 48.8054C102.192 48.8053 102.264 48.8287 102.34 48.9539C102.413 49.0746 102.467 49.2573 102.467 49.4725Z" stroke="#BFBEBE" stroke-width="0.5"/>
<path d="M101.211 49.4731C101.211 49.6883 101.158 49.8711 101.085 49.9919C101.009 50.1171 100.937 50.1406 100.904 50.1406C100.87 50.1406 100.799 50.1172 100.722 49.9921C100.649 49.8714 100.595 49.6886 100.595 49.4735C100.595 49.2583 100.648 49.0755 100.722 48.9547C100.798 48.8295 100.869 48.806 100.903 48.806C100.936 48.806 101.008 48.8294 101.084 48.9545C101.158 49.0752 101.211 49.258 101.211 49.4731Z" stroke="#BFBEBE" stroke-width="0.5"/>
<rect x="96.311" y="48.0999" width="6.5316" height="0.305757" transform="rotate(-0.0314817 96.311 48.0999)" stroke="#BFBEBE" stroke-width="0.305757"/>
<path d="M107.385 37.2394C107.385 37.6335 107.136 37.953 106.827 37.9532C106.519 37.9533 106.269 37.6341 106.269 37.24C106.268 36.846 106.518 36.5265 106.826 36.5263C107.135 36.5261 107.385 36.8454 107.385 37.2394Z" fill="#BFBEBE"/>
<path d="M109.059 37.2385C109.06 37.6325 108.81 37.9521 108.502 37.9523C108.193 37.9524 107.943 37.6331 107.943 37.2391C107.943 36.8451 108.193 36.5256 108.501 36.5254C108.809 36.5252 109.059 36.8445 109.059 37.2385Z" fill="#BFBEBE"/>
<path d="M105.084 39.483C105.899 41.1472 108.016 43.4766 109.968 39.4803" stroke="#BFBEBE"/>
</g>
<path d="M58.8271 6.43216C58.8264 5.02894 59.9633 3.89078 61.3665 3.89001L61.5294 3.88992C64.1527 3.88848 66.2806 6.01395 66.282 8.63731L66.2866 16.9867C66.2877 19.045 64.6201 20.7145 62.5618 20.7156C60.5035 20.7167 58.8341 19.0491 58.8329 16.9908L58.8271 6.43216Z" stroke="#BFBEBE" stroke-width="0.5"/>
<path d="M61.5059 3.74187L61.5041 0.37854" stroke="#BFBEBE" stroke-width="0.5"/>
<path d="M61.5041 0.462585L63.5274 0.461474" stroke="#BFBEBE" stroke-width="0.5"/>
<path d="M63.4576 0.377441L63.4595 3.74077" stroke="#BFBEBE" stroke-width="0.5"/>
<path d="M64.2296 20.8646C64.1359 19.5057 64.0739 16.8083 64.5763 16.8895C65.0787 16.9708 65.0661 19.5731 64.9971 20.8641" stroke="#BFBEBE" stroke-width="0.5"/>
<path d="M64.2296 20.8646C64.1359 19.5057 64.0739 16.8083 64.5763 16.8895C65.0787 16.9708 65.0661 19.5731 64.9971 20.8641" stroke="#BFBEBE" stroke-width="0.5"/>
<path d="M61.4389 20.8661C61.3451 19.5072 61.2831 16.8098 61.7855 16.891C62.2879 16.9723 62.2754 19.5746 62.2063 20.8657" stroke="#BFBEBE" stroke-width="0.5"/>
<path d="M62.6947 20.8654C62.6009 19.5065 62.539 16.8091 63.0414 16.8904C63.5438 16.9716 63.5312 19.574 63.4622 20.865" stroke="#BFBEBE" stroke-width="0.5"/>
<path d="M60.0104 22.4958C60.0105 22.711 59.957 22.8937 59.8836 23.0145C59.8075 23.1398 59.7362 23.1632 59.7026 23.1632C59.6691 23.1633 59.5977 23.1399 59.5214 23.0147C59.4479 22.894 59.3942 22.7113 59.3941 22.4961C59.394 22.281 59.4474 22.0982 59.5209 21.9774C59.597 21.8522 59.6683 21.8287 59.7019 21.8287C59.7354 21.8287 59.8068 21.8521 59.8831 21.9772C59.9566 22.0979 60.0103 22.2807 60.0104 22.4958Z" stroke="#BFBEBE" stroke-width="0.5"/>
<path d="M61.2662 22.4951C61.2663 22.7103 61.2129 22.893 61.1395 23.0138C61.0633 23.1391 60.992 23.1625 60.9584 23.1625C60.9249 23.1626 60.8535 23.1392 60.7773 23.014C60.7037 22.8933 60.65 22.7106 60.6499 22.4954C60.6498 22.2803 60.7033 22.0975 60.7767 21.9767C60.8528 21.8515 60.9242 21.828 60.9577 21.828C60.9913 21.828 61.0626 21.8514 61.1389 21.9765C61.2124 22.0972 61.2661 22.2799 61.2662 22.4951Z" stroke="#BFBEBE" stroke-width="0.5"/>
<path d="M65.4524 22.4928C65.4525 22.708 65.399 22.8908 65.3256 23.0115C65.2495 23.1368 65.1781 23.1602 65.1446 23.1603C65.111 23.1603 65.0397 23.1369 64.9634 23.0117C64.8899 22.891 64.8362 22.7083 64.8361 22.4932C64.836 22.278 64.8894 22.0952 64.9628 21.9744C65.0389 21.8492 65.1103 21.8257 65.1439 21.8257C65.1774 21.8257 65.2488 21.8491 65.325 21.9742C65.3986 22.0949 65.4523 22.2777 65.4524 22.4928Z" stroke="#BFBEBE" stroke-width="0.5"/>
<path d="M64.1965 22.4935C64.1967 22.7086 64.1432 22.8914 64.0698 23.0122C63.9937 23.1374 63.9223 23.1609 63.8888 23.1609C63.8552 23.1609 63.7838 23.1376 63.7076 23.0124C63.634 22.8917 63.5804 22.709 63.5802 22.4938C63.5801 22.2787 63.6336 22.0959 63.707 21.9751C63.7831 21.8499 63.8545 21.8264 63.888 21.8264C63.9216 21.8264 63.993 21.8498 64.0692 21.9749C64.1428 22.0956 64.1964 22.2783 64.1965 22.4935Z" stroke="#BFBEBE" stroke-width="0.5"/>
<rect x="59.2962" y="21.1203" width="6.5316" height="0.305757" transform="rotate(-0.0314817 59.2962 21.1203)" stroke="#BFBEBE" stroke-width="0.305757"/>
<path d="M70.3702 10.2598C70.3704 10.6538 70.1207 10.9734 69.8124 10.9736C69.5042 10.9737 69.2541 10.6544 69.2539 10.2604C69.2537 9.86641 69.5034 9.54686 69.8116 9.54669C70.1199 9.54652 70.37 9.8658 70.3702 10.2598Z" fill="#BFBEBE"/>
<path d="M72.0446 10.2589C72.0448 10.6529 71.7951 10.9725 71.4869 10.9726C71.1786 10.9728 70.9285 10.6535 70.9283 10.2595C70.9281 9.8655 71.1778 9.54594 71.4861 9.54577C71.7943 9.54561 72.0444 9.86488 72.0446 10.2589Z" fill="#BFBEBE"/>
<path d="M68.069 12.5033C68.8839 14.1675 71.0015 16.4969 72.9529 12.5006" stroke="#BFBEBE"/>
<path d="M38.8403 30.4431C38.8395 29.0399 39.9764 27.9017 41.3797 27.901L41.5426 27.9009C44.1659 27.8994 46.2937 30.0249 46.2952 32.6483L46.2998 40.9977C46.3009 43.056 44.6333 44.7254 42.575 44.7266C40.5167 44.7277 38.8472 43.0601 38.8461 41.0018L38.8403 30.4431Z" stroke="#BFBEBE" stroke-width="0.5"/>
<path d="M41.5191 27.7528L41.5173 24.3895" stroke="#BFBEBE" stroke-width="0.5"/>
<path d="M41.5173 24.4736L43.5406 24.4725" stroke="#BFBEBE" stroke-width="0.5"/>
<path d="M43.4708 24.3884L43.4726 27.7518" stroke="#BFBEBE" stroke-width="0.5"/>
<path d="M44.2428 44.8755C44.149 43.5167 44.0871 40.8192 44.5895 40.9005C45.0918 40.9818 45.0793 43.5841 45.0103 44.8751" stroke="#BFBEBE" stroke-width="0.5"/>
<path d="M44.2428 44.8755C44.149 43.5167 44.0871 40.8192 44.5895 40.9005C45.0918 40.9818 45.0793 43.5841 45.0103 44.8751" stroke="#BFBEBE" stroke-width="0.5"/>
<path d="M41.452 44.8771C41.3583 43.5182 41.2963 40.8208 41.7987 40.9021C42.3011 40.9833 42.2886 43.5857 42.2195 44.8767" stroke="#BFBEBE" stroke-width="0.5"/>
<path d="M42.7079 44.8764C42.6141 43.5175 42.5522 40.8201 43.0546 40.9014C43.5569 40.9826 43.5444 43.585 43.4754 44.876" stroke="#BFBEBE" stroke-width="0.5"/>
<path d="M40.0236 46.5068C40.0237 46.7219 39.9702 46.9047 39.8968 47.0255C39.8207 47.1507 39.7493 47.1742 39.7158 47.1742C39.6822 47.1743 39.6109 47.1509 39.5346 47.0257C39.4611 46.905 39.4074 46.7223 39.4073 46.5071C39.4072 46.292 39.4606 46.1092 39.534 45.9884C39.6101 45.8632 39.6815 45.8397 39.7151 45.8397C39.7486 45.8397 39.82 45.8631 39.8962 45.9882C39.9698 46.1089 40.0235 46.2916 40.0236 46.5068Z" stroke="#BFBEBE" stroke-width="0.5"/>
<path d="M41.2794 46.5061C41.2795 46.7212 41.226 46.904 41.1526 47.0248C41.0765 47.15 41.0052 47.1735 40.9716 47.1735C40.9381 47.1736 40.8667 47.1502 40.7904 47.025C40.7169 46.9043 40.6632 46.7216 40.6631 46.5064C40.663 46.2913 40.7165 46.1085 40.7899 45.9877C40.866 45.8625 40.9373 45.839 40.9709 45.839C41.0044 45.839 41.0758 45.8624 41.1521 45.9875C41.2256 46.1082 41.2793 46.2909 41.2794 46.5061Z" stroke="#BFBEBE" stroke-width="0.5"/>
<path d="M45.4656 46.5038C45.4657 46.719 45.4122 46.9017 45.3388 47.0225C45.2627 47.1478 45.1913 47.1712 45.1578 47.1712C45.1242 47.1713 45.0528 47.1479 44.9766 47.0227C44.9031 46.902 44.8494 46.7193 44.8493 46.5041C44.8491 46.289 44.9026 46.1062 44.976 45.9854C45.0521 45.8602 45.1235 45.8367 45.157 45.8367C45.1906 45.8367 45.262 45.8601 45.3382 45.9852C45.4118 46.1059 45.4654 46.2886 45.4656 46.5038Z" stroke="#BFBEBE" stroke-width="0.5"/>
<path d="M44.2097 46.5045C44.2099 46.7196 44.1564 46.9024 44.083 47.0232C44.0069 47.1484 43.9355 47.1719 43.9019 47.1719C43.8684 47.1719 43.797 47.1485 43.7208 47.0234C43.6472 46.9027 43.5935 46.72 43.5934 46.5048C43.5933 46.2897 43.6468 46.1069 43.7202 45.9861C43.7963 45.8609 43.8677 45.8374 43.9012 45.8374C43.9348 45.8374 44.0062 45.8607 44.0824 45.9859C44.1559 46.1066 44.2096 46.2893 44.2097 46.5045Z" stroke="#BFBEBE" stroke-width="0.5"/>
<rect x="39.3094" y="45.1313" width="6.5316" height="0.305757" transform="rotate(-0.0314817 39.3094 45.1313)" stroke="#BFBEBE" stroke-width="0.305757"/>
<path d="M50.3834 34.2708C50.3836 34.6648 50.1339 34.9843 49.8256 34.9845C49.5173 34.9847 49.2673 34.6654 49.2671 34.2714C49.2668 33.8774 49.5166 33.5578 49.8248 33.5576C50.1331 33.5575 50.3831 33.8768 50.3834 34.2708Z" fill="#BFBEBE"/>
<path d="M52.0578 34.2699C52.058 34.6639 51.8083 34.9834 51.5 34.9836C51.1918 34.9838 50.9417 34.6645 50.9415 34.2705C50.9413 33.8765 51.191 33.5569 51.4993 33.5567C51.8075 33.5566 52.0576 33.8758 52.0578 34.2699Z" fill="#BFBEBE"/>
<path d="M48.0822 36.5143C48.8971 38.1785 51.0147 40.5079 52.966 36.5116" stroke="#BFBEBE"/>
<path d="M59.8409 31.4316C59.8401 30.0284 60.977 28.8902 62.3802 28.8894L62.5431 28.8893C65.1665 28.8879 67.2943 31.0134 67.2957 33.6367L67.3003 41.9862C67.3014 44.0444 65.6338 45.7139 63.5755 45.715C61.5173 45.7162 59.8478 44.0485 59.8467 41.9902L59.8409 31.4316Z" stroke="#BFBEBE" stroke-width="0.5"/>
<path d="M62.5197 28.7413L62.5178 25.378" stroke="#BFBEBE" stroke-width="0.5"/>
<path d="M62.5179 25.462L64.5412 25.4609" stroke="#BFBEBE" stroke-width="0.5"/>
<path d="M64.4713 25.3769L64.4732 28.7402" stroke="#BFBEBE" stroke-width="0.5"/>
<path d="M65.2434 45.864C65.1496 44.5051 65.0876 41.8077 65.59 41.889C66.0924 41.9702 66.0799 44.5726 66.0108 45.8636" stroke="#BFBEBE" stroke-width="0.5"/>
<path d="M65.2434 45.864C65.1496 44.5051 65.0876 41.8077 65.59 41.889C66.0924 41.9702 66.0799 44.5726 66.0108 45.8636" stroke="#BFBEBE" stroke-width="0.5"/>
<path d="M62.4526 45.8656C62.3588 44.5067 62.2969 41.8093 62.7992 41.8905C63.3016 41.9718 63.2891 44.5741 63.22 45.8651" stroke="#BFBEBE" stroke-width="0.5"/>
<path d="M63.7084 45.8649C63.6147 44.506 63.5527 41.8086 64.0551 41.8898C64.5575 41.9711 64.545 44.5734 64.4759 45.8644" stroke="#BFBEBE" stroke-width="0.5"/>
<path d="M61.0241 47.4953C61.0242 47.7104 60.9708 47.8932 60.8974 48.014C60.8213 48.1392 60.7499 48.1627 60.7163 48.1627C60.6828 48.1627 60.6114 48.1393 60.5352 48.0142C60.4616 47.8935 60.4079 47.7108 60.4078 47.4956C60.4077 47.2804 60.4612 47.0977 60.5346 46.9769C60.6107 46.8516 60.6821 46.8282 60.7156 46.8282C60.7492 46.8281 60.8205 46.8515 60.8968 46.9767C60.9703 47.0974 61.024 47.2801 61.0241 47.4953Z" stroke="#BFBEBE" stroke-width="0.5"/>
<path d="M62.28 47.4946C62.2801 47.7097 62.2266 47.8925 62.1532 48.0133C62.0771 48.1385 62.0057 48.162 61.9722 48.162C61.9386 48.162 61.8672 48.1386 61.791 48.0135C61.7174 47.8928 61.6638 47.71 61.6637 47.4949C61.6635 47.2797 61.717 47.097 61.7904 46.9762C61.8665 46.8509 61.9379 46.8275 61.9714 46.8275C62.005 46.8274 62.0764 46.8508 62.1526 46.976C62.2262 47.0967 62.2798 47.2794 62.28 47.4946Z" stroke="#BFBEBE" stroke-width="0.5"/>
<path d="M66.4661 47.4923C66.4662 47.7074 66.4128 47.8902 66.3393 48.011C66.2632 48.1362 66.1919 48.1597 66.1583 48.1597C66.1248 48.1597 66.0534 48.1363 65.9771 48.0112C65.9036 47.8905 65.8499 47.7078 65.8498 47.4926C65.8497 47.2774 65.9032 47.0947 65.9766 46.9739C66.0527 46.8486 66.124 46.8252 66.1576 46.8252C66.1911 46.8251 66.2625 46.8485 66.3388 46.9737C66.4123 47.0944 66.466 47.2771 66.4661 47.4923Z" stroke="#BFBEBE" stroke-width="0.5"/>
<path d="M65.2103 47.4929C65.2104 47.7081 65.1569 47.8909 65.0835 48.0117C65.0074 48.1369 64.936 48.1604 64.9025 48.1604C64.8689 48.1604 64.7976 48.137 64.7213 48.0119C64.6478 47.8912 64.5941 47.7084 64.594 47.4933C64.5939 47.2781 64.6473 47.0953 64.7207 46.9746C64.7968 46.8493 64.8682 46.8259 64.9018 46.8258C64.9353 46.8258 65.0067 46.8492 65.0829 46.9744C65.1565 47.0951 65.2102 47.2778 65.2103 47.4929Z" stroke="#BFBEBE" stroke-width="0.5"/>
<rect x="60.3099" y="46.1197" width="6.5316" height="0.305757" transform="rotate(-0.0314817 60.3099 46.1197)" stroke="#BFBEBE" stroke-width="0.305757"/>
<path d="M71.3839 35.2592C71.3841 35.6533 71.1344 35.9728 70.8261 35.973C70.5179 35.9731 70.2678 35.6539 70.2676 35.2599C70.2674 34.8658 70.5171 34.5463 70.8254 34.5461C71.1336 34.5459 71.3837 34.8652 71.3839 35.2592Z" fill="#BFBEBE"/>
<path d="M73.0583 35.2583C73.0586 35.6523 72.8088 35.9719 72.5006 35.9721C72.1923 35.9722 71.9423 35.653 71.942 35.2589C71.9418 34.8649 72.1915 34.5454 72.4998 34.5452C72.8081 34.545 73.0581 34.8643 73.0583 35.2583Z" fill="#BFBEBE"/>
<path d="M69.0828 37.5028C69.8976 39.167 72.0153 41.4964 73.9666 37.5001" stroke="#BFBEBE"/>
<path d="M76.8409 31.4222C76.8401 30.019 77.977 28.8809 79.3802 28.8801L79.5431 28.88C82.1665 28.8786 84.2943 31.004 84.2957 33.6274L84.3003 41.9768C84.3014 44.0351 82.6338 45.7046 80.5755 45.7057C78.5173 45.7068 76.8478 44.0392 76.8467 41.9809L76.8409 31.4222Z" stroke="#BFBEBE" stroke-width="0.5"/>
<path d="M79.5197 28.732L79.5178 25.3686" stroke="#BFBEBE" stroke-width="0.5"/>
<path d="M79.5179 25.4527L81.5412 25.4516" stroke="#BFBEBE" stroke-width="0.5"/>
<path d="M81.4713 25.3676L81.4732 28.7309" stroke="#BFBEBE" stroke-width="0.5"/>
<path d="M82.2434 45.8547C82.1496 44.4958 82.0876 41.7984 82.59 41.8796C83.0924 41.9609 83.0799 44.5632 83.0108 45.8542" stroke="#BFBEBE" stroke-width="0.5"/>
<path d="M82.2434 45.8547C82.1496 44.4958 82.0876 41.7984 82.59 41.8796C83.0924 41.9609 83.0799 44.5632 83.0108 45.8542" stroke="#BFBEBE" stroke-width="0.5"/>
<path d="M79.4526 45.8562C79.3588 44.4974 79.2969 41.7999 79.7992 41.8812C80.3016 41.9624 80.2891 44.5648 80.22 45.8558" stroke="#BFBEBE" stroke-width="0.5"/>
<path d="M80.7084 45.8555C80.6147 44.4967 80.5527 41.7992 81.0551 41.8805C81.5575 41.9617 81.545 44.5641 81.4759 45.8551" stroke="#BFBEBE" stroke-width="0.5"/>
<path d="M78.0241 47.4859C78.0242 47.7011 77.9708 47.8839 77.8974 48.0046C77.8213 48.1299 77.7499 48.1533 77.7163 48.1534C77.6828 48.1534 77.6114 48.13 77.5352 48.0048C77.4616 47.8841 77.4079 47.7014 77.4078 47.4863C77.4077 47.2711 77.4612 47.0883 77.5346 46.9675C77.6107 46.8423 77.6821 46.8188 77.7156 46.8188C77.7492 46.8188 77.8205 46.8422 77.8968 46.9673C77.9703 47.088 78.024 47.2708 78.0241 47.4859Z" stroke="#BFBEBE" stroke-width="0.5"/>
<path d="M79.28 47.4852C79.2801 47.7004 79.2266 47.8832 79.1532 48.0039C79.0771 48.1292 79.0057 48.1526 78.9722 48.1527C78.9386 48.1527 78.8672 48.1293 78.791 48.0041C78.7174 47.8834 78.6638 47.7007 78.6637 47.4856C78.6635 47.2704 78.717 47.0876 78.7904 46.9668C78.8665 46.8416 78.9379 46.8181 78.9714 46.8181C79.005 46.8181 79.0764 46.8415 79.1526 46.9666C79.2262 47.0873 79.2798 47.2701 79.28 47.4852Z" stroke="#BFBEBE" stroke-width="0.5"/>
<path d="M83.4661 47.4829C83.4662 47.6981 83.4128 47.8809 83.3393 48.0017C83.2632 48.1269 83.1919 48.1504 83.1583 48.1504C83.1248 48.1504 83.0534 48.127 82.9771 48.0019C82.9036 47.8811 82.8499 47.6984 82.8498 47.4833C82.8497 47.2681 82.9032 47.0853 82.9766 46.9645C83.0527 46.8393 83.124 46.8158 83.1576 46.8158C83.1911 46.8158 83.2625 46.8392 83.3388 46.9643C83.4123 47.085 83.466 47.2678 83.4661 47.4829Z" stroke="#BFBEBE" stroke-width="0.5"/>
<path d="M82.2103 47.4836C82.2104 47.6988 82.1569 47.8815 82.0835 48.0023C82.0074 48.1276 81.936 48.151 81.9025 48.151C81.8689 48.1511 81.7976 48.1277 81.7213 48.0025C81.6478 47.8818 81.5941 47.6991 81.594 47.4839C81.5939 47.2688 81.6473 47.086 81.7207 46.9652C81.7968 46.84 81.8682 46.8165 81.9018 46.8165C81.9353 46.8165 82.0067 46.8399 82.0829 46.965C82.1565 47.0857 82.2102 47.2684 82.2103 47.4836Z" stroke="#BFBEBE" stroke-width="0.5"/>
<rect x="77.3099" y="46.1104" width="6.5316" height="0.305757" transform="rotate(-0.0314817 77.3099 46.1104)" stroke="#BFBEBE" stroke-width="0.305757"/>
<path d="M88.3839 35.2499C88.3841 35.6439 88.1344 35.9635 87.8261 35.9636C87.5179 35.9638 87.2678 35.6445 87.2676 35.2505C87.2674 34.8565 87.5171 34.5369 87.8254 34.5368C88.1336 34.5366 88.3837 34.8559 88.3839 35.2499Z" fill="#BFBEBE"/>
<path d="M90.0583 35.249C90.0586 35.643 89.8088 35.9626 89.5006 35.9627C89.1923 35.9629 88.9423 35.6436 88.942 35.2496C88.9418 34.8556 89.1915 34.536 89.4998 34.5359C89.8081 34.5357 90.0581 34.855 90.0583 35.249Z" fill="#BFBEBE"/>
<path d="M86.0828 37.4934C86.8976 39.1577 89.0153 41.4871 90.9666 37.4908" stroke="#BFBEBE"/>
<path d="M77.854 55.4217C77.8533 54.0184 78.9902 52.8803 80.3934 52.8795L80.5563 52.8794C83.1797 52.878 85.3075 55.0035 85.3089 57.6268L85.3135 65.9762C85.3146 68.0345 83.647 69.704 81.5887 69.7051C79.5304 69.7062 77.861 68.0386 77.8598 65.9803L77.854 55.4217Z" stroke="#BFBEBE" stroke-width="0.5"/>
<path d="M80.5329 52.7314L80.531 49.368" stroke="#BFBEBE" stroke-width="0.5"/>
<path d="M80.531 49.4521L82.5543 49.451" stroke="#BFBEBE" stroke-width="0.5"/>
<path d="M82.4845 49.367L82.4864 52.7303" stroke="#BFBEBE" stroke-width="0.5"/>
<path d="M83.2565 69.8541C83.1628 68.4952 83.1008 65.7978 83.6032 65.8791C84.1056 65.9603 84.0931 68.5627 84.024 69.8537" stroke="#BFBEBE" stroke-width="0.5"/>
<path d="M83.2565 69.8541C83.1628 68.4952 83.1008 65.7978 83.6032 65.8791C84.1056 65.9603 84.0931 68.5627 84.024 69.8537" stroke="#BFBEBE" stroke-width="0.5"/>
<path d="M80.4658 69.8556C80.372 68.4968 80.31 65.7994 80.8124 65.8806C81.3148 65.9619 81.3023 68.5642 81.2332 69.8552" stroke="#BFBEBE" stroke-width="0.5"/>
<path d="M81.7216 69.8549C81.6279 68.4961 81.5659 65.7986 82.0683 65.8799C82.5707 65.9612 82.5581 68.5635 82.4891 69.8545" stroke="#BFBEBE" stroke-width="0.5"/>
<path d="M79.0373 71.4853C79.0374 71.7005 78.9839 71.8833 78.9105 72.0041C78.8344 72.1293 78.7631 72.1528 78.7295 72.1528C78.696 72.1528 78.6246 72.1294 78.5483 72.0043C78.4748 71.8836 78.4211 71.7008 78.421 71.4857C78.4209 71.2705 78.4744 71.0877 78.5478 70.967C78.6239 70.8417 78.6952 70.8183 78.7288 70.8182C78.7623 70.8182 78.8337 70.8416 78.91 70.9668C78.9835 71.0875 79.0372 71.2702 79.0373 71.4853Z" stroke="#BFBEBE" stroke-width="0.5"/>
<path d="M80.2931 71.4846C80.2933 71.6998 80.2398 71.8826 80.1664 72.0034C80.0903 72.1286 80.0189 72.1521 79.9854 72.1521C79.9518 72.1521 79.8804 72.1287 79.8042 72.0036C79.7306 71.8829 79.677 71.7001 79.6768 71.485C79.6767 71.2698 79.7302 71.087 79.8036 70.9663C79.8797 70.841 79.9511 70.8176 79.9846 70.8175C80.0182 70.8175 80.0896 70.8409 80.1658 70.9661C80.2393 71.0868 80.293 71.2695 80.2931 71.4846Z" stroke="#BFBEBE" stroke-width="0.5"/>
<path d="M84.4793 71.4823C84.4794 71.6975 84.4259 71.8803 84.3525 72.0011C84.2764 72.1263 84.2051 72.1498 84.1715 72.1498C84.138 72.1498 84.0666 72.1264 83.9903 72.0013C83.9168 71.8806 83.8631 71.6978 83.863 71.4827C83.8629 71.2675 83.9163 71.0847 83.9898 70.964C84.0659 70.8387 84.1372 70.8153 84.1708 70.8152C84.2043 70.8152 84.2757 70.8386 84.352 70.9638C84.4255 71.0845 84.4792 71.2672 84.4793 71.4823Z" stroke="#BFBEBE" stroke-width="0.5"/>
<path d="M83.2235 71.483C83.2236 71.6982 83.1701 71.881 83.0967 72.0017C83.0206 72.127 82.9492 72.1504 82.9157 72.1505C82.8821 72.1505 82.8107 72.1271 82.7345 72.0019C82.661 71.8812 82.6073 71.6985 82.6072 71.4834C82.607 71.2682 82.6605 71.0854 82.7339 70.9646C82.81 70.8394 82.8814 70.8159 82.9149 70.8159C82.9485 70.8159 83.0199 70.8393 83.0961 70.9644C83.1697 71.0851 83.2233 71.2679 83.2235 71.483Z" stroke="#BFBEBE" stroke-width="0.5"/>
<rect x="78.3231" y="70.1098" width="6.5316" height="0.305757" transform="rotate(-0.0314817 78.3231 70.1098)" stroke="#BFBEBE" stroke-width="0.305757"/>
<path d="M89.3971 59.2493C89.3973 59.6433 89.1476 59.9629 88.8393 59.9631C88.5311 59.9632 88.281 59.644 88.2808 59.2499C88.2806 58.8559 88.5303 58.5364 88.8385 58.5362C89.1468 58.536 89.3969 58.8553 89.3971 59.2493Z" fill="#BFBEBE"/>
<path d="M91.0715 59.2484C91.0717 59.6424 90.822 59.962 90.5138 59.9621C90.2055 59.9623 89.9554 59.643 89.9552 59.249C89.955 58.855 90.2047 58.5354 90.513 58.5353C90.8212 58.5351 91.0713 58.8544 91.0715 59.2484Z" fill="#BFBEBE"/>
<path d="M87.0959 61.4929C87.9108 63.1571 90.0284 65.4865 91.9798 61.4902" stroke="#BFBEBE"/>
<path d="M52.8568 60.4354C52.856 59.0322 53.9929 57.894 55.3961 57.8933L55.559 57.8932C58.1824 57.8917 60.3102 60.0172 60.3117 62.6406L60.3162 70.99C60.3174 73.0483 58.6497 74.7177 56.5915 74.7189C54.5332 74.72 52.8637 73.0524 52.8626 70.9941L52.8568 60.4354Z" stroke="#BFBEBE" stroke-width="0.5"/>
<path d="M55.5356 57.7451L55.5338 54.3818" stroke="#BFBEBE" stroke-width="0.5"/>
<path d="M55.5338 54.4659L57.5571 54.4648" stroke="#BFBEBE" stroke-width="0.5"/>
<path d="M57.4873 54.3807L57.4891 57.7441" stroke="#BFBEBE" stroke-width="0.5"/>
<path d="M58.2593 74.8679C58.1655 73.509 58.1036 70.8116 58.6059 70.8928C59.1083 70.9741 59.0958 73.5764 59.0267 74.8674" stroke="#BFBEBE" stroke-width="0.5"/>
<path d="M58.2593 74.8679C58.1655 73.509 58.1036 70.8116 58.6059 70.8928C59.1083 70.9741 59.0958 73.5764 59.0267 74.8674" stroke="#BFBEBE" stroke-width="0.5"/>
<path d="M55.4685 74.8694C55.3747 73.5105 55.3128 70.8131 55.8152 70.8944C56.3176 70.9756 56.305 73.578 56.236 74.869" stroke="#BFBEBE" stroke-width="0.5"/>
<path d="M56.7244 74.8687C56.6306 73.5098 56.5687 70.8124 57.071 70.8937C57.5734 70.9749 57.5609 73.5773 57.4918 74.8683" stroke="#BFBEBE" stroke-width="0.5"/>
<path d="M54.0401 76.4991C54.0402 76.7143 53.9867 76.897 53.9133 77.0178C53.8372 77.1431 53.7658 77.1665 53.7323 77.1665C53.6987 77.1666 53.6273 77.1432 53.5511 77.018C53.4775 76.8973 53.4239 76.7146 53.4238 76.4994C53.4236 76.2843 53.4771 76.1015 53.5505 75.9807C53.6266 75.8555 53.698 75.832 53.7315 75.832C53.7651 75.832 53.8365 75.8554 53.9127 75.9805C53.9863 76.1012 54.0399 76.2839 54.0401 76.4991Z" stroke="#BFBEBE" stroke-width="0.5"/>
<path d="M55.2959 76.4984C55.296 76.7136 55.2425 76.8963 55.1691 77.0171C55.093 77.1424 55.0217 77.1658 54.9881 77.1658C54.9545 77.1659 54.8832 77.1425 54.8069 77.0173C54.7334 76.8966 54.6797 76.7139 54.6796 76.4987C54.6795 76.2836 54.7329 76.1008 54.8063 75.98C54.8825 75.8548 54.9538 75.8313 54.9874 75.8313C55.0209 75.8313 55.0923 75.8547 55.1686 75.9798C55.2421 76.1005 55.2958 76.2832 55.2959 76.4984Z" stroke="#BFBEBE" stroke-width="0.5"/>
<path d="M59.482 76.4961C59.4822 76.7113 59.4287 76.8941 59.3553 77.0148C59.2792 77.1401 59.2078 77.1635 59.1743 77.1636C59.1407 77.1636 59.0693 77.1402 58.9931 77.015C58.9195 76.8943 58.8659 76.7116 58.8657 76.4965C58.8656 76.2813 58.9191 76.0985 58.9925 75.9777C59.0686 75.8525 59.14 75.829 59.1735 75.829C59.2071 75.829 59.2785 75.8524 59.3547 75.9775C59.4282 76.0982 59.4819 76.281 59.482 76.4961Z" stroke="#BFBEBE" stroke-width="0.5"/>
<path d="M58.2262 76.4968C58.2263 76.7119 58.1729 76.8947 58.0994 77.0155C58.0233 77.1407 57.952 77.1642 57.9184 77.1642C57.8849 77.1642 57.8135 77.1409 57.7372 77.0157C57.6637 76.895 57.61 76.7123 57.6099 76.4971C57.6098 76.282 57.6633 76.0992 57.7367 75.9784C57.8128 75.8532 57.8841 75.8297 57.9177 75.8297C57.9512 75.8297 58.0226 75.8531 58.0989 75.9782C58.1724 76.0989 58.2261 76.2816 58.2262 76.4968Z" stroke="#BFBEBE" stroke-width="0.5"/>
<rect x="53.3259" y="75.1236" width="6.5316" height="0.305757" transform="rotate(-0.0314817 53.3259 75.1236)" stroke="#BFBEBE" stroke-width="0.305757"/>
<path d="M64.3998 64.2631C64.4001 64.6571 64.1503 64.9767 63.8421 64.9768C63.5338 64.977 63.2838 64.6577 63.2835 64.2637C63.2833 63.8697 63.533 63.5501 63.8413 63.55C64.1496 63.5498 64.3996 63.8691 64.3998 64.2631Z" fill="#BFBEBE"/>
<path d="M66.0743 64.2622C66.0745 64.6562 65.8248 64.9757 65.5165 64.9759C65.2083 64.9761 64.9582 64.6568 64.958 64.2628C64.9578 63.8688 65.2075 63.5492 65.5157 63.549C65.824 63.5489 66.0741 63.8681 66.0743 64.2622Z" fill="#BFBEBE"/>
<path d="M62.0987 66.5066C62.9136 68.1709 65.0312 70.5002 66.9825 66.5039" stroke="#BFBEBE"/>
<path d="M63.865 75.4294C63.8643 74.0261 65.0012 72.888 66.4044 72.8872L66.5673 72.8871C69.1906 72.8857 71.3185 75.0111 71.3199 77.6345L71.3245 85.9839C71.3256 88.0422 69.658 89.7117 67.5997 89.7128C65.5414 89.7139 63.872 88.0463 63.8708 85.988L63.865 75.4294Z" stroke="#BFBEBE" stroke-width="0.5"/>
<path d="M66.5438 72.7391L66.542 69.3757" stroke="#BFBEBE" stroke-width="0.5"/>
<path d="M66.542 69.4598L68.5653 69.4587" stroke="#BFBEBE" stroke-width="0.5"/>
<path d="M68.4955 69.3747L68.4974 72.738" stroke="#BFBEBE" stroke-width="0.5"/>
<path d="M69.2675 89.8618C69.1738 88.5029 69.1118 85.8055 69.6142 85.8867C70.1166 85.968 70.104 88.5703 70.035 89.8614" stroke="#BFBEBE" stroke-width="0.5"/>
<path d="M69.2675 89.8618C69.1738 88.5029 69.1118 85.8055 69.6142 85.8867C70.1166 85.968 70.104 88.5703 70.035 89.8614" stroke="#BFBEBE" stroke-width="0.5"/>
<path d="M66.4768 89.8633C66.383 88.5045 66.321 85.807 66.8234 85.8883C67.3258 85.9696 67.3133 88.5719 67.2442 89.8629" stroke="#BFBEBE" stroke-width="0.5"/>
<path d="M67.7326 89.8626C67.6388 88.5038 67.5769 85.8063 68.0793 85.8876C68.5817 85.9689 68.5691 88.5712 68.5001 89.8622" stroke="#BFBEBE" stroke-width="0.5"/>
<path d="M65.0483 91.493C65.0484 91.7082 64.9949 91.891 64.9215 92.0118C64.8454 92.137 64.7741 92.1605 64.7405 92.1605C64.707 92.1605 64.6356 92.1371 64.5593 92.012C64.4858 91.8912 64.4321 91.7085 64.432 91.4934C64.4319 91.2782 64.4854 91.0954 64.5588 90.9746C64.6349 90.8494 64.7062 90.8259 64.7398 90.8259C64.7733 90.8259 64.8447 90.8493 64.921 90.9744C64.9945 91.0951 65.0482 91.2779 65.0483 91.493Z" stroke="#BFBEBE" stroke-width="0.5"/>
<path d="M66.3041 91.4923C66.3042 91.7075 66.2508 91.8903 66.1774 92.0111C66.1013 92.1363 66.0299 92.1598 65.9963 92.1598C65.9628 92.1598 65.8914 92.1364 65.8152 92.0113C65.7416 91.8905 65.6879 91.7078 65.6878 91.4927C65.6877 91.2775 65.7412 91.0947 65.8146 90.9739C65.8907 90.8487 65.9621 90.8252 65.9956 90.8252C66.0292 90.8252 66.1005 90.8486 66.1768 90.9737C66.2503 91.0944 66.304 91.2772 66.3041 91.4923Z" stroke="#BFBEBE" stroke-width="0.5"/>
<path d="M70.4903 91.49C70.4904 91.7052 70.4369 91.888 70.3635 92.0088C70.2874 92.134 70.216 92.1575 70.1825 92.1575C70.1489 92.1575 70.0776 92.1341 70.0013 92.009C69.9278 91.8883 69.8741 91.7055 69.874 91.4904C69.8739 91.2752 69.9273 91.0924 70.0007 90.9717C70.0768 90.8464 70.1482 90.823 70.1818 90.8229C70.2153 90.8229 70.2867 90.8463 70.3629 90.9715C70.4365 91.0922 70.4902 91.2749 70.4903 91.49Z" stroke="#BFBEBE" stroke-width="0.5"/>
<path d="M69.2345 91.4907C69.2346 91.7059 69.1811 91.8887 69.1077 92.0094C69.0316 92.1347 68.9602 92.1581 68.9267 92.1582C68.8931 92.1582 68.8217 92.1348 68.7455 92.0096C68.6719 91.8889 68.6183 91.7062 68.6181 91.491C68.618 91.2759 68.6715 91.0931 68.7449 90.9723C68.821 90.8471 68.8924 90.8236 68.9259 90.8236C68.9595 90.8236 69.0309 90.847 69.1071 90.9721C69.1807 91.0928 69.2343 91.2756 69.2345 91.4907Z" stroke="#BFBEBE" stroke-width="0.5"/>
<rect x="64.3341" y="90.1175" width="6.5316" height="0.305757" transform="rotate(-0.0314817 64.3341 90.1175)" stroke="#BFBEBE" stroke-width="0.305757"/>
<path d="M75.4081 79.257C75.4083 79.651 75.1586 79.9706 74.8503 79.9708C74.5421 79.9709 74.292 79.6516 74.2918 79.2576C74.2916 78.8636 74.5413 78.5441 74.8495 78.5439C75.1578 78.5437 75.4079 78.863 75.4081 79.257Z" fill="#BFBEBE"/>
<path d="M77.0825 79.2561C77.0827 79.6501 76.833 79.9697 76.5248 79.9698C76.2165 79.97 75.9664 79.6507 75.9662 79.2567C75.966 78.8627 76.2157 78.5431 76.524 78.543C76.8322 78.5428 77.0823 78.8621 77.0825 79.2561Z" fill="#BFBEBE"/>
<path d="M73.1069 81.5005C73.9218 83.1648 76.0394 85.4942 77.9908 81.4979" stroke="#BFBEBE"/>
<path d="M39.8277 7.4426C39.8269 6.03938 40.9638 4.90122 42.367 4.90044L42.5299 4.90035C45.1533 4.89891 47.2811 7.02439 47.2825 9.64774L47.2871 17.9972C47.2883 20.0554 45.6206 21.7249 43.5624 21.726C41.5041 21.7272 39.8346 20.0595 39.8335 18.0013L39.8277 7.4426Z" stroke="#BFBEBE" stroke-width="0.5"/>
<path d="M42.5065 4.75231L42.5046 1.38898" stroke="#BFBEBE" stroke-width="0.5"/>
<path d="M42.5047 1.47302L44.528 1.47191" stroke="#BFBEBE" stroke-width="0.5"/>
<path d="M44.4582 1.38788L44.46 4.75121" stroke="#BFBEBE" stroke-width="0.5"/>
<path d="M45.2302 21.875C45.1364 20.5161 45.0745 17.8187 45.5768 17.9C46.0792 17.9812 46.0667 20.5836 45.9976 21.8746" stroke="#BFBEBE" stroke-width="0.5"/>
<path d="M45.2302 21.875C45.1364 20.5161 45.0745 17.8187 45.5768 17.9C46.0792 17.9812 46.0667 20.5836 45.9976 21.8746" stroke="#BFBEBE" stroke-width="0.5"/>
<path d="M42.4394 21.8765C42.3456 20.5177 42.2837 17.8202 42.7861 17.9015C43.2884 17.9827 43.2759 20.5851 43.2069 21.8761" stroke="#BFBEBE" stroke-width="0.5"/>
<path d="M43.6953 21.8759C43.6015 20.517 43.5395 17.8196 44.0419 17.9008C44.5443 17.9821 44.5318 20.5844 44.4627 21.8754" stroke="#BFBEBE" stroke-width="0.5"/>
<path d="M41.0109 23.5062C41.0111 23.7214 40.9576 23.9042 40.8842 24.025C40.8081 24.1502 40.7367 24.1737 40.7032 24.1737C40.6696 24.1737 40.5982 24.1503 40.522 24.0252C40.4484 23.9045 40.3948 23.7217 40.3946 23.5066C40.3945 23.2914 40.448 23.1086 40.5214 22.9879C40.5975 22.8626 40.6689 22.8392 40.7024 22.8391C40.736 22.8391 40.8074 22.8625 40.8836 22.9877C40.9571 23.1084 41.0108 23.2911 41.0109 23.5062Z" stroke="#BFBEBE" stroke-width="0.5"/>
<path d="M42.2668 23.5055C42.2669 23.7207 42.2134 23.9035 42.14 24.0243C42.0639 24.1495 41.9925 24.173 41.959 24.173C41.9254 24.173 41.854 24.1496 41.7778 24.0245C41.7043 23.9038 41.6506 23.721 41.6505 23.5059C41.6503 23.2907 41.7038 23.1079 41.7772 22.9872C41.8533 22.8619 41.9247 22.8385 41.9583 22.8384C41.9918 22.8384 42.0632 22.8618 42.1394 22.987C42.213 23.1077 42.2667 23.2904 42.2668 23.5055Z" stroke="#BFBEBE" stroke-width="0.5"/>
<path d="M46.4529 23.5033C46.453 23.7184 46.3996 23.9012 46.3262 24.022C46.2501 24.1472 46.1787 24.1707 46.1451 24.1707C46.1116 24.1707 46.0402 24.1473 45.964 24.0222C45.8904 23.9015 45.8367 23.7187 45.8366 23.5036C45.8365 23.2884 45.89 23.1057 45.9634 22.9849C46.0395 22.8596 46.1109 22.8362 46.1444 22.8361C46.178 22.8361 46.2493 22.8595 46.3256 22.9847C46.3991 23.1054 46.4528 23.2881 46.4529 23.5033Z" stroke="#BFBEBE" stroke-width="0.5"/>
<path d="M45.1971 23.5039C45.1972 23.7191 45.1437 23.9019 45.0703 24.0226C44.9942 24.1479 44.9229 24.1713 44.8893 24.1714C44.8558 24.1714 44.7844 24.148 44.7081 24.0228C44.6346 23.9021 44.5809 23.7194 44.5808 23.5043C44.5807 23.2891 44.6342 23.1063 44.7076 22.9855C44.7837 22.8603 44.855 22.8368 44.8886 22.8368C44.9221 22.8368 44.9935 22.8602 45.0698 22.9853C45.1433 23.106 45.197 23.2888 45.1971 23.5039Z" stroke="#BFBEBE" stroke-width="0.5"/>
<rect x="40.2968" y="22.1307" width="6.5316" height="0.305757" transform="rotate(-0.0314817 40.2968 22.1307)" stroke="#BFBEBE" stroke-width="0.305757"/>
<path d="M51.3707 11.2703C51.3709 11.6643 51.1212 11.9838 50.813 11.984C50.5047 11.9842 50.2546 11.6649 50.2544 11.2709C50.2542 10.8768 50.5039 10.5573 50.8122 10.5571C51.1204 10.557 51.3705 10.8762 51.3707 11.2703Z" fill="#BFBEBE"/>
<path d="M53.0452 11.2693C53.0454 11.6634 52.7957 11.9829 52.4874 11.9831C52.1791 11.9832 51.9291 11.664 51.9289 11.27C51.9286 10.8759 52.1784 10.5564 52.4866 10.5562C52.7949 10.556 53.0449 10.8753 53.0452 11.2693Z" fill="#BFBEBE"/>
<path d="M49.0696 13.5137C49.8845 15.178 52.0021 17.5074 53.9534 13.511" stroke="#BFBEBE"/>
<path d="M21.8409 31.4525C21.8401 30.0492 22.977 28.9111 24.3802 28.9103L24.5431 28.9102C27.1665 28.9088 29.2943 31.0342 29.2957 33.6576L29.3003 42.007C29.3014 44.0653 27.6338 45.7348 25.5755 45.7359C23.5173 45.737 21.8478 44.0694 21.8467 42.0111L21.8409 31.4525Z" stroke="#BFBEBE" stroke-width="0.5"/>
<path d="M24.5197 28.7622L24.5178 25.3988" stroke="#BFBEBE" stroke-width="0.5"/>
<path d="M24.5179 25.4829L26.5412 25.4818" stroke="#BFBEBE" stroke-width="0.5"/>
<path d="M26.4713 25.3978L26.4732 28.7611" stroke="#BFBEBE" stroke-width="0.5"/>
<path d="M27.2434 45.8849C27.1496 44.526 27.0876 41.8286 27.59 41.9098C28.0924 41.9911 28.0799 44.5934 28.0108 45.8845" stroke="#BFBEBE" stroke-width="0.5"/>
<path d="M27.2434 45.8849C27.1496 44.526 27.0876 41.8286 27.59 41.9098C28.0924 41.9911 28.0799 44.5934 28.0108 45.8845" stroke="#BFBEBE" stroke-width="0.5"/>
<path d="M24.4526 45.8864C24.3588 44.5276 24.2969 41.8301 24.7992 41.9114C25.3016 41.9927 25.2891 44.595 25.22 45.886" stroke="#BFBEBE" stroke-width="0.5"/>
<path d="M25.7084 45.8857C25.6147 44.5269 25.5527 41.8294 26.0551 41.9107C26.5575 41.992 26.545 44.5943 26.4759 45.8853" stroke="#BFBEBE" stroke-width="0.5"/>
<path d="M23.0241 47.5161C23.0242 47.7313 22.9708 47.9141 22.8974 48.0349C22.8213 48.1601 22.7499 48.1836 22.7163 48.1836C22.6828 48.1836 22.6114 48.1602 22.5352 48.0351C22.4616 47.9144 22.4079 47.7316 22.4078 47.5165C22.4077 47.3013 22.4612 47.1185 22.5346 46.9977C22.6107 46.8725 22.6821 46.849 22.7156 46.849C22.7492 46.849 22.8205 46.8724 22.8968 46.9975C22.9703 47.1182 23.024 47.301 23.0241 47.5161Z" stroke="#BFBEBE" stroke-width="0.5"/>
<path d="M24.28 47.5154C24.2801 47.7306 24.2266 47.9134 24.1532 48.0342C24.0771 48.1594 24.0057 48.1829 23.9722 48.1829C23.9386 48.1829 23.8672 48.1595 23.791 48.0344C23.7174 47.9136 23.6638 47.7309 23.6637 47.5158C23.6635 47.3006 23.717 47.1178 23.7904 46.997C23.8665 46.8718 23.9379 46.8483 23.9714 46.8483C24.005 46.8483 24.0764 46.8717 24.1526 46.9968C24.2262 47.1175 24.2798 47.3003 24.28 47.5154Z" stroke="#BFBEBE" stroke-width="0.5"/>
<path d="M28.4661 47.5131C28.4662 47.7283 28.4128 47.9111 28.3393 48.0319C28.2632 48.1571 28.1919 48.1806 28.1583 48.1806C28.1248 48.1806 28.0534 48.1572 27.9771 48.0321C27.9036 47.9114 27.8499 47.7286 27.8498 47.5135C27.8497 47.2983 27.9032 47.1155 27.9766 46.9948C28.0527 46.8695 28.124 46.8461 28.1576 46.846C28.1911 46.846 28.2625 46.8694 28.3388 46.9946C28.4123 47.1153 28.466 47.298 28.4661 47.5131Z" stroke="#BFBEBE" stroke-width="0.5"/>
<path d="M27.2103 47.5138C27.2104 47.729 27.1569 47.9118 27.0835 48.0325C27.0074 48.1578 26.936 48.1812 26.9025 48.1813C26.8689 48.1813 26.7976 48.1579 26.7213 48.0327C26.6478 47.912 26.5941 47.7293 26.594 47.5142C26.5939 47.299 26.6473 47.1162 26.7207 46.9954C26.7968 46.8702 26.8682 46.8467 26.9018 46.8467C26.9353 46.8467 27.0067 46.8701 27.0829 46.9952C27.1565 47.1159 27.2102 47.2987 27.2103 47.5138Z" stroke="#BFBEBE" stroke-width="0.5"/>
<rect x="22.3099" y="46.1406" width="6.5316" height="0.305757" transform="rotate(-0.0314817 22.3099 46.1406)" stroke="#BFBEBE" stroke-width="0.305757"/>
<path d="M33.3839 35.2801C33.3841 35.6741 33.1344 35.9937 32.8261 35.9939C32.5179 35.994 32.2678 35.6747 32.2676 35.2807C32.2674 34.8867 32.5171 34.5672 32.8254 34.567C33.1336 34.5668 33.3837 34.8861 33.3839 35.2801Z" fill="#BFBEBE"/>
<path d="M35.0583 35.2792C35.0586 35.6732 34.8088 35.9928 34.5006 35.9929C34.1923 35.9931 33.9423 35.6738 33.942 35.2798C33.9418 34.8858 34.1915 34.5662 34.4998 34.5661C34.8081 34.5659 35.0581 34.8852 35.0583 35.2792Z" fill="#BFBEBE"/>
<path d="M31.0828 37.5237C31.8976 39.1879 34.0153 41.5173 35.9666 37.521" stroke="#BFBEBE"/>
<path d="M36.8568 60.4442C36.856 59.041 37.9929 57.9028 39.3961 57.9021L39.559 57.902C42.1824 57.9005 44.3102 60.026 44.3117 62.6494L44.3162 70.9988C44.3174 73.0571 42.6497 74.7265 40.5915 74.7277C38.5332 74.7288 36.8637 73.0612 36.8626 71.0029L36.8568 60.4442Z" stroke="#BFBEBE" stroke-width="0.5"/>
<path d="M39.5356 57.7539L39.5338 54.3906" stroke="#BFBEBE" stroke-width="0.5"/>
<path d="M39.5338 54.4747L41.5571 54.4736" stroke="#BFBEBE" stroke-width="0.5"/>
<path d="M41.4873 54.3895L41.4891 57.7529" stroke="#BFBEBE" stroke-width="0.5"/>
<path d="M42.2593 74.8766C42.1655 73.5178 42.1036 70.8203 42.6059 70.9016C43.1083 70.9829 43.0958 73.5852 43.0267 74.8762" stroke="#BFBEBE" stroke-width="0.5"/>
<path d="M42.2593 74.8766C42.1655 73.5178 42.1036 70.8203 42.6059 70.9016C43.1083 70.9829 43.0958 73.5852 43.0267 74.8762" stroke="#BFBEBE" stroke-width="0.5"/>
<path d="M39.4685 74.8782C39.3747 73.5193 39.3128 70.8219 39.8152 70.9032C40.3176 70.9844 40.305 73.5868 40.236 74.8778" stroke="#BFBEBE" stroke-width="0.5"/>
<path d="M40.7244 74.8775C40.6306 73.5186 40.5687 70.8212 41.071 70.9025C41.5734 70.9837 41.5609 73.5861 41.4918 74.8771" stroke="#BFBEBE" stroke-width="0.5"/>
<path d="M38.0401 76.5079C38.0402 76.723 37.9867 76.9058 37.9133 77.0266C37.8372 77.1518 37.7658 77.1753 37.7323 77.1753C37.6987 77.1754 37.6273 77.152 37.5511 77.0268C37.4775 76.9061 37.4239 76.7234 37.4238 76.5082C37.4236 76.2931 37.4771 76.1103 37.5505 75.9895C37.6266 75.8643 37.698 75.8408 37.7315 75.8408C37.7651 75.8408 37.8365 75.8642 37.9127 75.9893C37.9863 76.11 38.0399 76.2927 38.0401 76.5079Z" stroke="#BFBEBE" stroke-width="0.5"/>
<path d="M39.2959 76.5072C39.296 76.7223 39.2425 76.9051 39.1691 77.0259C39.093 77.1511 39.0217 77.1746 38.9881 77.1746C38.9545 77.1746 38.8832 77.1513 38.8069 77.0261C38.7334 76.9054 38.6797 76.7227 38.6796 76.5075C38.6795 76.2924 38.7329 76.1096 38.8063 75.9888C38.8825 75.8636 38.9538 75.8401 38.9874 75.8401C39.0209 75.8401 39.0923 75.8635 39.1686 75.9886C39.2421 76.1093 39.2958 76.292 39.2959 76.5072Z" stroke="#BFBEBE" stroke-width="0.5"/>
<path d="M43.482 76.5049C43.4822 76.7201 43.4287 76.9028 43.3553 77.0236C43.2792 77.1489 43.2078 77.1723 43.1743 77.1723C43.1407 77.1724 43.0693 77.149 42.9931 77.0238C42.9195 76.9031 42.8659 76.7204 42.8657 76.5052C42.8656 76.2901 42.9191 76.1073 42.9925 75.9865C43.0686 75.8613 43.14 75.8378 43.1735 75.8378C43.2071 75.8378 43.2785 75.8612 43.3547 75.9863C43.4282 76.107 43.4819 76.2897 43.482 76.5049Z" stroke="#BFBEBE" stroke-width="0.5"/>
<path d="M42.2262 76.5056C42.2263 76.7207 42.1729 76.9035 42.0994 77.0243C42.0233 77.1495 41.952 77.173 41.9184 77.173C41.8849 77.173 41.8135 77.1496 41.7372 77.0245C41.6637 76.9038 41.61 76.7211 41.6099 76.5059C41.6098 76.2908 41.6633 76.108 41.7367 75.9872C41.8128 75.862 41.8841 75.8385 41.9177 75.8385C41.9512 75.8385 42.0226 75.8618 42.0989 75.987C42.1724 76.1077 42.2261 76.2904 42.2262 76.5056Z" stroke="#BFBEBE" stroke-width="0.5"/>
<rect x="37.3259" y="75.1324" width="6.5316" height="0.305757" transform="rotate(-0.0314817 37.3259 75.1324)" stroke="#BFBEBE" stroke-width="0.305757"/>
<path d="M48.3998 64.2719C48.4001 64.6659 48.1503 64.9854 47.8421 64.9856C47.5338 64.9858 47.2838 64.6665 47.2835 64.2725C47.2833 63.8785 47.533 63.5589 47.8413 63.5587C48.1496 63.5586 48.3996 63.8779 48.3998 64.2719Z" fill="#BFBEBE"/>
<path d="M50.0743 64.271C50.0745 64.665 49.8248 64.9845 49.5165 64.9847C49.2083 64.9849 48.9582 64.6656 48.958 64.2716C48.9578 63.8776 49.2075 63.558 49.5157 63.5578C49.824 63.5577 50.0741 63.8769 50.0743 64.271Z" fill="#BFBEBE"/>
<path d="M46.0987 66.5154C46.9136 68.1796 49.0312 70.509 50.9825 66.5127" stroke="#BFBEBE"/>
<path d="M37.8832 108.444C37.8824 107.04 39.0193 105.902 40.4225 105.901L40.5854 105.901C43.2088 105.9 45.3366 108.025 45.338 110.649L45.3426 118.998C45.3437 121.056 43.6761 122.726 41.6178 122.727C39.5596 122.728 37.8901 121.061 37.889 119.002L37.8832 108.444Z" stroke="#BFBEBE" stroke-width="0.5"/>
<path d="M40.562 105.753L40.5601 102.39" stroke="#BFBEBE" stroke-width="0.5"/>
<path d="M40.5602 102.474L42.5834 102.473" stroke="#BFBEBE" stroke-width="0.5"/>
<path d="M42.5136 102.389L42.5155 105.752" stroke="#BFBEBE" stroke-width="0.5"/>
<path d="M43.2857 122.876C43.1919 121.517 43.1299 118.82 43.6323 118.901C44.1347 118.982 44.1222 121.585 44.0531 122.876" stroke="#BFBEBE" stroke-width="0.5"/>
<path d="M43.2857 122.876C43.1919 121.517 43.1299 118.82 43.6323 118.901C44.1347 118.982 44.1222 121.585 44.0531 122.876" stroke="#BFBEBE" stroke-width="0.5"/>
<path d="M40.4949 122.878C40.4011 121.519 40.3392 118.821 40.8415 118.903C41.3439 118.984 41.3314 121.586 41.2623 122.877" stroke="#BFBEBE" stroke-width="0.5"/>
<path d="M41.7507 122.877C41.657 121.518 41.595 118.821 42.0974 118.902C42.5998 118.983 42.5873 121.585 42.5182 122.876" stroke="#BFBEBE" stroke-width="0.5"/>
<path d="M39.0664 124.507C39.0665 124.722 39.0131 124.905 38.9397 125.026C38.8636 125.151 38.7922 125.175 38.7586 125.175C38.7251 125.175 38.6537 125.151 38.5775 125.026C38.5039 124.906 38.4502 124.723 38.4501 124.508C38.45 124.292 38.5035 124.11 38.5769 123.989C38.653 123.864 38.7244 123.84 38.7579 123.84C38.7915 123.84 38.8628 123.864 38.9391 123.989C39.0126 124.109 39.0663 124.292 39.0664 124.507Z" stroke="#BFBEBE" stroke-width="0.5"/>
<path d="M40.3223 124.507C40.3224 124.722 40.2689 124.905 40.1955 125.025C40.1194 125.151 40.048 125.174 40.0145 125.174C39.9809 125.174 39.9095 125.151 39.8333 125.026C39.7597 124.905 39.7061 124.722 39.7059 124.507C39.7058 124.292 39.7593 124.109 39.8327 123.988C39.9088 123.863 39.9802 123.84 40.0137 123.84C40.0473 123.839 40.1187 123.863 40.1949 123.988C40.2685 124.109 40.3221 124.291 40.3223 124.507Z" stroke="#BFBEBE" stroke-width="0.5"/>
<path d="M44.5084 124.504C44.5085 124.719 44.455 124.902 44.3816 125.023C44.3055 125.148 44.2342 125.172 44.2006 125.172C44.1671 125.172 44.0957 125.148 44.0194 125.023C43.9459 124.903 43.8922 124.72 43.8921 124.505C43.892 124.29 43.9455 124.107 44.0189 123.986C44.095 123.861 44.1663 123.837 44.1999 123.837C44.2334 123.837 44.3048 123.861 44.3811 123.986C44.4546 124.106 44.5083 124.289 44.5084 124.504Z" stroke="#BFBEBE" stroke-width="0.5"/>
<path d="M43.2526 124.505C43.2527 124.72 43.1992 124.903 43.1258 125.024C43.0497 125.149 42.9783 125.172 42.9448 125.172C42.9112 125.172 42.8399 125.149 42.7636 125.024C42.6901 124.903 42.6364 124.72 42.6363 124.505C42.6362 124.29 42.6896 124.107 42.763 123.987C42.8391 123.861 42.9105 123.838 42.9441 123.838C42.9776 123.838 43.049 123.861 43.1252 123.986C43.1988 124.107 43.2525 124.29 43.2526 124.505Z" stroke="#BFBEBE" stroke-width="0.5"/>
<rect x="38.3522" y="123.132" width="6.5316" height="0.305757" transform="rotate(-0.0314817 38.3522 123.132)" stroke="#BFBEBE" stroke-width="0.305757"/>
<path d="M49.4262 112.271C49.4264 112.665 49.1767 112.985 48.8684 112.985C48.5602 112.985 48.3101 112.666 48.3099 112.272C48.3097 111.878 48.5594 111.558 48.8677 111.558C49.1759 111.558 49.426 111.877 49.4262 112.271Z" fill="#BFBEBE"/>
<path d="M51.1006 112.27C51.1009 112.664 50.8511 112.984 50.5429 112.984C50.2346 112.984 49.9846 112.665 49.9843 112.271C49.9841 111.877 50.2338 111.557 50.5421 111.557C50.8504 111.557 51.1004 111.876 51.1006 112.27Z" fill="#BFBEBE"/>
<path d="M47.1251 114.515C47.9399 116.179 50.0575 118.508 52.0089 114.512" stroke="#BFBEBE"/>
<path d="M0.894722 129.464C0.893951 128.061 2.03086 126.923 3.43408 126.922L3.59698 126.922C6.22033 126.92 8.34815 129.046 8.34959 131.669L8.35418 140.019C8.35531 142.077 6.68767 143.746 4.6294 143.747C2.57113 143.749 0.901654 142.081 0.900523 140.023L0.894722 129.464Z" stroke="#BFBEBE" stroke-width="0.5"/>
<path d="M3.57353 126.774L3.57169 123.41" stroke="#BFBEBE" stroke-width="0.5"/>
<path d="M3.57172 123.494L5.59501 123.493" stroke="#BFBEBE" stroke-width="0.5"/>
<path d="M5.52521 123.409L5.52706 126.773" stroke="#BFBEBE" stroke-width="0.5"/>
<path d="M6.29722 143.896C6.20345 142.538 6.1415 139.84 6.64388 139.921C7.14626 140.003 7.13374 142.605 7.06468 143.896" stroke="#BFBEBE" stroke-width="0.5"/>
<path d="M6.29722 143.896C6.20345 142.538 6.1415 139.84 6.64388 139.921C7.14626 140.003 7.13374 142.605 7.06468 143.896" stroke="#BFBEBE" stroke-width="0.5"/>
<path d="M3.50645 143.898C3.41268 142.539 3.35073 139.842 3.85311 139.923C4.35549 140.004 4.34297 142.607 4.27391 143.898" stroke="#BFBEBE" stroke-width="0.5"/>
<path d="M4.76231 143.897C4.66854 142.538 4.60659 139.841 5.10897 139.922C5.61135 140.003 5.59883 142.606 5.52977 143.897" stroke="#BFBEBE" stroke-width="0.5"/>
<path d="M2.07799 145.528C2.07811 145.743 2.02463 145.926 1.95123 146.046C1.87512 146.172 1.80375 146.195 1.7702 146.195C1.73665 146.195 1.66526 146.172 1.58902 146.047C1.51548 145.926 1.4618 145.743 1.46169 145.528C1.46157 145.313 1.51504 145.13 1.58845 145.009C1.66456 144.884 1.73592 144.861 1.76947 144.861C1.80302 144.861 1.87441 144.884 1.95066 145.009C2.02419 145.13 2.07787 145.313 2.07799 145.528Z" stroke="#BFBEBE" stroke-width="0.5"/>
<path d="M3.33382 145.527C3.33393 145.742 3.28046 145.925 3.20705 146.046C3.13095 146.171 3.05958 146.194 3.02603 146.194C2.99248 146.194 2.92109 146.171 2.84485 146.046C2.77131 145.925 2.71763 145.742 2.71751 145.527C2.7174 145.312 2.77087 145.129 2.84428 145.009C2.92038 144.883 2.99175 144.86 3.0253 144.86C3.05885 144.86 3.13024 144.883 3.20648 145.008C3.28002 145.129 3.3337 145.312 3.33382 145.527Z" stroke="#BFBEBE" stroke-width="0.5"/>
<path d="M7.51997 145.525C7.52009 145.74 7.46662 145.923 7.39321 146.043C7.3171 146.169 7.24574 146.192 7.21219 146.192C7.17864 146.192 7.10725 146.169 7.031 146.044C6.95747 145.923 6.90379 145.74 6.90367 145.525C6.90355 145.31 6.95703 145.127 7.03043 145.006C7.10654 144.881 7.1779 144.858 7.21146 144.858C7.24501 144.858 7.3164 144.881 7.39264 145.006C7.46618 145.127 7.51986 145.31 7.51997 145.525Z" stroke="#BFBEBE" stroke-width="0.5"/>
<path d="M6.26415 145.525C6.26426 145.741 6.21079 145.923 6.13738 146.044C6.06127 146.169 5.98991 146.193 5.95636 146.193C5.92281 146.193 5.85142 146.169 5.77518 146.044C5.70164 145.924 5.64796 145.741 5.64784 145.526C5.64772 145.311 5.7012 145.128 5.77461 145.007C5.85071 144.882 5.92208 144.858 5.95563 144.858C5.98918 144.858 6.06057 144.882 6.13681 145.007C6.21035 145.127 6.26403 145.31 6.26415 145.525Z" stroke="#BFBEBE" stroke-width="0.5"/>
<rect x="1.36381" y="144.152" width="6.5316" height="0.305757" transform="rotate(-0.0314817 1.36381 144.152)" stroke="#BFBEBE" stroke-width="0.305757"/>
<path d="M12.4378 133.292C12.438 133.686 12.1883 134.005 11.88 134.005C11.5718 134.006 11.3217 133.686 11.3215 133.292C11.3213 132.898 11.571 132.579 11.8792 132.579C12.1875 132.578 12.4376 132.898 12.4378 133.292Z" fill="#BFBEBE"/>
<path d="M14.1122 133.291C14.1124 133.685 13.8627 134.004 13.5544 134.004C13.2462 134.005 12.9961 133.685 12.9959 133.291C12.9957 132.897 13.2454 132.578 13.5537 132.578C13.8619 132.577 14.112 132.897 14.1122 133.291Z" fill="#BFBEBE"/>
<path d="M10.1366 135.535C10.9515 137.199 13.0691 139.529 15.0204 135.533" stroke="#BFBEBE"/>
<path d="M2.90845 154.463C2.90768 153.06 4.04459 151.921 5.44781 151.921L5.61071 151.921C8.23406 151.919 10.3619 154.045 10.3633 156.668L10.3679 165.017C10.369 167.076 8.7014 168.745 6.64313 168.746C4.58486 168.747 2.91539 167.08 2.91426 165.022L2.90845 154.463Z" stroke="#BFBEBE" stroke-width="0.5"/>
<path d="M5.58727 151.773L5.58542 148.409" stroke="#BFBEBE" stroke-width="0.5"/>
<path d="M5.58545 148.493L7.60875 148.492" stroke="#BFBEBE" stroke-width="0.5"/>
<path d="M7.53894 148.408L7.54079 151.772" stroke="#BFBEBE" stroke-width="0.5"/>
<path d="M8.31095 168.895C8.21718 167.536 8.15523 164.839 8.65761 164.92C9.16 165.002 9.14747 167.604 9.07841 168.895" stroke="#BFBEBE" stroke-width="0.5"/>
<path d="M8.31095 168.895C8.21718 167.536 8.15523 164.839 8.65761 164.92C9.16 165.002 9.14747 167.604 9.07841 168.895" stroke="#BFBEBE" stroke-width="0.5"/>
<path d="M5.52018 168.897C5.42641 167.538 5.36446 164.841 5.86684 164.922C6.36922 165.003 6.3567 167.605 6.28764 168.896" stroke="#BFBEBE" stroke-width="0.5"/>
<path d="M6.77604 168.896C6.68227 167.537 6.62032 164.84 7.1227 164.921C7.62508 165.002 7.61256 167.605 7.5435 168.896" stroke="#BFBEBE" stroke-width="0.5"/>
<path d="M4.09172 170.527C4.09184 170.742 4.03836 170.924 3.96496 171.045C3.88885 171.17 3.81749 171.194 3.78394 171.194C3.75038 171.194 3.679 171.171 3.60275 171.045C3.52921 170.925 3.47554 170.742 3.47542 170.527C3.4753 170.312 3.52878 170.129 3.60218 170.008C3.67829 169.883 3.74965 169.859 3.7832 169.859C3.81675 169.859 3.88814 169.883 3.96439 170.008C4.03793 170.129 4.0916 170.311 4.09172 170.527Z" stroke="#BFBEBE" stroke-width="0.5"/>
<path d="M5.34755 170.526C5.34767 170.741 5.29419 170.924 5.22079 171.045C5.14468 171.17 5.07332 171.193 5.03977 171.193C5.00621 171.193 4.93483 171.17 4.85858 171.045C4.78504 170.924 4.73137 170.741 4.73125 170.526C4.73113 170.311 4.78461 170.128 4.85801 170.007C4.93412 169.882 5.00548 169.859 5.03903 169.859C5.07258 169.859 5.14397 169.882 5.22022 170.007C5.29375 170.128 5.34743 170.311 5.34755 170.526Z" stroke="#BFBEBE" stroke-width="0.5"/>
<path d="M9.53371 170.524C9.53383 170.739 9.48035 170.921 9.40694 171.042C9.33084 171.168 9.25947 171.191 9.22592 171.191C9.19237 171.191 9.12098 171.168 9.04474 171.042C8.9712 170.922 8.91752 170.739 8.9174 170.524C8.91729 170.309 8.97076 170.126 9.04417 170.005C9.12028 169.88 9.19164 169.856 9.22519 169.856C9.25874 169.856 9.33013 169.88 9.40637 170.005C9.47991 170.126 9.53359 170.308 9.53371 170.524Z" stroke="#BFBEBE" stroke-width="0.5"/>
<path d="M8.27788 170.524C8.278 170.739 8.22452 170.922 8.15112 171.043C8.07501 171.168 8.00364 171.192 7.97009 171.192C7.93654 171.192 7.86515 171.168 7.78891 171.043C7.71537 170.922 7.66169 170.74 7.66158 170.525C7.66146 170.309 7.71493 170.127 7.78834 170.006C7.86445 169.881 7.93581 169.857 7.96936 169.857C8.00291 169.857 8.0743 169.88 8.15055 170.006C8.22408 170.126 8.27776 170.309 8.27788 170.524Z" stroke="#BFBEBE" stroke-width="0.5"/>
<rect x="3.37754" y="169.151" width="6.5316" height="0.305757" transform="rotate(-0.0314817 3.37754 169.151)" stroke="#BFBEBE" stroke-width="0.305757"/>
<path d="M14.4515 158.291C14.4517 158.685 14.202 159.004 13.8937 159.004C13.5855 159.004 13.3354 158.685 13.3352 158.291C13.335 157.897 13.5847 157.578 13.893 157.577C14.2012 157.577 14.4513 157.896 14.4515 158.291Z" fill="#BFBEBE"/>
<path d="M16.1259 158.29C16.1262 158.684 15.8764 159.003 15.5682 159.003C15.2599 159.004 15.0099 158.684 15.0096 158.29C15.0094 157.896 15.2591 157.577 15.5674 157.576C15.8757 157.576 16.1257 157.896 16.1259 158.29Z" fill="#BFBEBE"/>
<path d="M12.1504 160.534C12.9652 162.198 15.0828 164.528 17.0342 160.531" stroke="#BFBEBE"/>
<path d="M13.8837 109.457C13.8829 108.054 15.0198 106.915 16.4231 106.915L16.586 106.915C19.2093 106.913 21.3371 109.039 21.3386 111.662L21.3432 120.011C21.3443 122.07 19.6767 123.739 17.6184 123.74C15.5601 123.741 13.8906 122.074 13.8895 120.016L13.8837 109.457Z" stroke="#BFBEBE" stroke-width="0.5"/>
<path d="M16.5625 106.767L16.5607 103.403" stroke="#BFBEBE" stroke-width="0.5"/>
<path d="M16.5607 103.487L18.584 103.486" stroke="#BFBEBE" stroke-width="0.5"/>
<path d="M18.5142 103.402L18.516 106.765" stroke="#BFBEBE" stroke-width="0.5"/>
<path d="M19.2862 123.889C19.1924 122.53 19.1305 119.833 19.6329 119.914C20.1352 119.995 20.1227 122.598 20.0537 123.889" stroke="#BFBEBE" stroke-width="0.5"/>
<path d="M19.2862 123.889C19.1924 122.53 19.1305 119.833 19.6329 119.914C20.1352 119.995 20.1227 122.598 20.0537 123.889" stroke="#BFBEBE" stroke-width="0.5"/>
<path d="M16.4954 123.891C16.4017 122.532 16.3397 119.835 16.8421 119.916C17.3445 119.997 17.3319 122.599 17.2629 123.89" stroke="#BFBEBE" stroke-width="0.5"/>
<path d="M17.7513 123.89C17.6575 122.531 17.5956 119.834 18.098 119.915C18.6003 119.996 18.5878 122.599 18.5187 123.89" stroke="#BFBEBE" stroke-width="0.5"/>
<path d="M15.067 125.521C15.0671 125.736 15.0136 125.918 14.9402 126.039C14.8641 126.164 14.7927 126.188 14.7592 126.188C14.7256 126.188 14.6542 126.165 14.578 126.039C14.5045 125.919 14.4508 125.736 14.4507 125.521C14.4506 125.306 14.504 125.123 14.5774 125.002C14.6535 124.877 14.7249 124.853 14.7585 124.853C14.792 124.853 14.8634 124.877 14.9396 125.002C15.0132 125.123 15.0669 125.305 15.067 125.521Z" stroke="#BFBEBE" stroke-width="0.5"/>
<path d="M16.3228 125.52C16.3229 125.735 16.2694 125.918 16.196 126.039C16.1199 126.164 16.0486 126.187 16.015 126.187C15.9815 126.187 15.9101 126.164 15.8338 126.039C15.7603 125.918 15.7066 125.735 15.7065 125.52C15.7064 125.305 15.7599 125.122 15.8333 125.001C15.9094 124.876 15.9807 124.853 16.0143 124.853C16.0478 124.853 16.1192 124.876 16.1955 125.001C16.269 125.122 16.3227 125.305 16.3228 125.52Z" stroke="#BFBEBE" stroke-width="0.5"/>
<path d="M20.509 125.518C20.5091 125.733 20.4556 125.915 20.3822 126.036C20.3061 126.161 20.2347 126.185 20.2012 126.185C20.1676 126.185 20.0962 126.162 20.02 126.036C19.9465 125.916 19.8928 125.733 19.8927 125.518C19.8925 125.303 19.946 125.12 20.0194 124.999C20.0955 124.874 20.1669 124.85 20.2004 124.85C20.234 124.85 20.3054 124.874 20.3816 124.999C20.4552 125.12 20.5088 125.302 20.509 125.518Z" stroke="#BFBEBE" stroke-width="0.5"/>
<path d="M19.2531 125.518C19.2532 125.733 19.1998 125.916 19.1264 126.037C19.0503 126.162 18.9789 126.186 18.9453 126.186C18.9118 126.186 18.8404 126.162 18.7642 126.037C18.6906 125.916 18.6369 125.734 18.6368 125.519C18.6367 125.303 18.6902 125.121 18.7636 125C18.8397 124.875 18.9111 124.851 18.9446 124.851C18.9782 124.851 19.0496 124.874 19.1258 125C19.1993 125.12 19.253 125.303 19.2531 125.518Z" stroke="#BFBEBE" stroke-width="0.5"/>
<rect x="14.3528" y="124.145" width="6.5316" height="0.305757" transform="rotate(-0.0314817 14.3528 124.145)" stroke="#BFBEBE" stroke-width="0.305757"/>
<path d="M25.4268 113.285C25.427 113.679 25.1773 113.998 24.869 113.998C24.5607 113.998 24.3107 113.679 24.3105 113.285C24.3102 112.891 24.56 112.572 24.8682 112.571C25.1765 112.571 25.4265 112.89 25.4268 113.285Z" fill="#BFBEBE"/>
<path d="M27.1012 113.284C27.1014 113.678 26.8517 113.997 26.5434 113.997C26.2352 113.998 25.9851 113.678 25.9849 113.284C25.9847 112.89 26.2344 112.571 26.5426 112.57C26.8509 112.57 27.101 112.89 27.1012 113.284Z" fill="#BFBEBE"/>
<path d="M23.1256 115.528C23.9405 117.192 26.0581 119.522 28.0094 115.525" stroke="#BFBEBE"/>
<path d="M20.8986 136.453C20.8978 135.05 22.0347 133.912 23.4379 133.911L23.6008 133.911C26.2242 133.909 28.352 136.035 28.3534 138.658L28.358 147.008C28.3592 149.066 26.6915 150.735 24.6332 150.736C22.575 150.738 20.9055 149.07 20.9044 147.012L20.8986 136.453Z" stroke="#BFBEBE" stroke-width="0.5"/>
<path d="M23.5774 133.763L23.5755 130.399" stroke="#BFBEBE" stroke-width="0.5"/>
<path d="M23.5756 130.483L25.5989 130.482" stroke="#BFBEBE" stroke-width="0.5"/>
<path d="M25.5291 130.398L25.5309 133.762" stroke="#BFBEBE" stroke-width="0.5"/>
<path d="M26.3011 150.885C26.2073 149.527 26.1453 146.829 26.6477 146.91C27.1501 146.992 27.1376 149.594 27.0685 150.885" stroke="#BFBEBE" stroke-width="0.5"/>
<path d="M26.3011 150.885C26.2073 149.527 26.1453 146.829 26.6477 146.91C27.1501 146.992 27.1376 149.594 27.0685 150.885" stroke="#BFBEBE" stroke-width="0.5"/>
<path d="M23.5103 150.887C23.4165 149.528 23.3546 146.831 23.857 146.912C24.3593 146.993 24.3468 149.596 24.2778 150.887" stroke="#BFBEBE" stroke-width="0.5"/>
<path d="M24.7662 150.886C24.6724 149.527 24.6104 146.83 25.1128 146.911C25.6152 146.992 25.6027 149.595 25.5336 150.886" stroke="#BFBEBE" stroke-width="0.5"/>
<path d="M22.0818 152.517C22.082 152.732 22.0285 152.915 21.9551 153.035C21.879 153.161 21.8076 153.184 21.774 153.184C21.7405 153.184 21.6691 153.161 21.5929 153.036C21.5193 152.915 21.4656 152.732 21.4655 152.517C21.4654 152.302 21.5189 152.119 21.5923 151.998C21.6684 151.873 21.7398 151.85 21.7733 151.85C21.8069 151.85 21.8783 151.873 21.9545 151.998C22.028 152.119 22.0817 152.301 22.0818 152.517Z" stroke="#BFBEBE" stroke-width="0.5"/>
<path d="M23.3377 152.516C23.3378 152.731 23.2843 152.914 23.2109 153.035C23.1348 153.16 23.0634 153.183 23.0299 153.183C22.9963 153.183 22.9249 153.16 22.8487 153.035C22.7752 152.914 22.7215 152.731 22.7214 152.516C22.7212 152.301 22.7747 152.118 22.8481 151.998C22.9242 151.872 22.9956 151.849 23.0291 151.849C23.0627 151.849 23.1341 151.872 23.2103 151.997C23.2839 152.118 23.3375 152.301 23.3377 152.516Z" stroke="#BFBEBE" stroke-width="0.5"/>
<path d="M27.5238 152.514C27.5239 152.729 27.4705 152.912 27.3971 153.032C27.3209 153.158 27.2496 153.181 27.216 153.181C27.1825 153.181 27.1111 153.158 27.0348 153.033C26.9613 152.912 26.9076 152.729 26.9075 152.514C26.9074 152.299 26.9609 152.116 27.0343 151.995C27.1104 151.87 27.1818 151.847 27.2153 151.847C27.2489 151.847 27.3202 151.87 27.3965 151.995C27.47 152.116 27.5237 152.299 27.5238 152.514Z" stroke="#BFBEBE" stroke-width="0.5"/>
<path d="M26.268 152.514C26.2681 152.729 26.2146 152.912 26.1412 153.033C26.0651 153.158 25.9938 153.182 25.9602 153.182C25.9267 153.182 25.8553 153.158 25.779 153.033C25.7055 152.913 25.6518 152.73 25.6517 152.515C25.6516 152.3 25.705 152.117 25.7785 151.996C25.8546 151.871 25.9259 151.847 25.9595 151.847C25.993 151.847 26.0644 151.871 26.1407 151.996C26.2142 152.116 26.2679 152.299 26.268 152.514Z" stroke="#BFBEBE" stroke-width="0.5"/>
<rect x="21.3677" y="151.141" width="6.5316" height="0.305757" transform="rotate(-0.0314817 21.3677 151.141)" stroke="#BFBEBE" stroke-width="0.305757"/>
<path d="M32.4416 140.281C32.4418 140.675 32.1921 140.994 31.8839 140.994C31.5756 140.995 31.3255 140.675 31.3253 140.281C31.3251 139.887 31.5748 139.568 31.8831 139.568C32.1913 139.567 32.4414 139.887 32.4416 140.281Z" fill="#BFBEBE"/>
<path d="M34.1161 140.28C34.1163 140.674 33.8666 140.993 33.5583 140.993C33.25 140.994 33 140.674 32.9998 140.28C32.9995 139.886 33.2493 139.567 33.5575 139.567C33.8658 139.566 34.1158 139.886 34.1161 140.28Z" fill="#BFBEBE"/>
<path d="M30.1405 142.524C30.9554 144.188 33.073 146.518 35.0243 142.521" stroke="#BFBEBE"/>
<path d="M20.8271 6.45303C20.8264 5.04981 21.9633 3.91165 23.3665 3.91088L23.5294 3.91079C26.1527 3.90935 28.2806 6.03483 28.282 8.65818L28.2866 17.0076C28.2877 19.0659 26.6201 20.7354 24.5618 20.7365C22.5035 20.7376 20.8341 19.07 20.8329 17.0117L20.8271 6.45303Z" stroke="#BFBEBE" stroke-width="0.5"/>
<path d="M23.5059 3.76275L23.5041 0.399414" stroke="#BFBEBE" stroke-width="0.5"/>
<path d="M23.5041 0.483459L25.5274 0.482348" stroke="#BFBEBE" stroke-width="0.5"/>
<path d="M25.4576 0.398315L25.4595 3.76165" stroke="#BFBEBE" stroke-width="0.5"/>
<path d="M26.2296 20.8854C26.1359 19.5266 26.0739 16.8291 26.5763 16.9104C27.0787 16.9917 27.0661 19.594 26.9971 20.885" stroke="#BFBEBE" stroke-width="0.5"/>
<path d="M26.2296 20.8854C26.1359 19.5266 26.0739 16.8291 26.5763 16.9104C27.0787 16.9917 27.0661 19.594 26.9971 20.885" stroke="#BFBEBE" stroke-width="0.5"/>
<path d="M23.4389 20.887C23.3451 19.5281 23.2831 16.8307 23.7855 16.9119C24.2879 16.9932 24.2754 19.5955 24.2063 20.8865" stroke="#BFBEBE" stroke-width="0.5"/>
<path d="M24.6947 20.8863C24.6009 19.5274 24.539 16.83 25.0414 16.9112C25.5438 16.9925 25.5312 19.5949 25.4622 20.8859" stroke="#BFBEBE" stroke-width="0.5"/>
<path d="M22.0104 22.5167C22.0105 22.7318 21.957 22.9146 21.8836 23.0354C21.8075 23.1606 21.7362 23.1841 21.7026 23.1841C21.6691 23.1841 21.5977 23.1608 21.5214 23.0356C21.4479 22.9149 21.3942 22.7322 21.3941 22.517C21.394 22.3019 21.4474 22.1191 21.5209 21.9983C21.597 21.8731 21.6683 21.8496 21.7019 21.8496C21.7354 21.8496 21.8068 21.8729 21.8831 21.9981C21.9566 22.1188 22.0103 22.3015 22.0104 22.5167Z" stroke="#BFBEBE" stroke-width="0.5"/>
<path d="M23.2662 22.516C23.2663 22.7311 23.2129 22.9139 23.1395 23.0347C23.0633 23.1599 22.992 23.1834 22.9584 23.1834C22.9249 23.1834 22.8535 23.16 22.7773 23.0349C22.7037 22.9142 22.65 22.7315 22.6499 22.5163C22.6498 22.3012 22.7033 22.1184 22.7767 21.9976C22.8528 21.8724 22.9242 21.8489 22.9577 21.8489C22.9913 21.8489 23.0626 21.8722 23.1389 21.9974C23.2124 22.1181 23.2661 22.3008 23.2662 22.516Z" stroke="#BFBEBE" stroke-width="0.5"/>
<path d="M27.4524 22.5137C27.4525 22.7288 27.399 22.9116 27.3256 23.0324C27.2495 23.1576 27.1781 23.1811 27.1446 23.1811C27.111 23.1811 27.0397 23.1578 26.9634 23.0326C26.8899 22.9119 26.8362 22.7292 26.8361 22.514C26.836 22.2989 26.8894 22.1161 26.9628 21.9953C27.0389 21.8701 27.1103 21.8466 27.1439 21.8466C27.1774 21.8466 27.2488 21.87 27.325 21.9951C27.3986 22.1158 27.4523 22.2985 27.4524 22.5137Z" stroke="#BFBEBE" stroke-width="0.5"/>
<path d="M26.1965 22.5144C26.1967 22.7295 26.1432 22.9123 26.0698 23.0331C25.9937 23.1583 25.9223 23.1818 25.8888 23.1818C25.8552 23.1818 25.7838 23.1584 25.7076 23.0333C25.634 22.9126 25.5804 22.7299 25.5802 22.5147C25.5801 22.2995 25.6336 22.1168 25.707 21.996C25.7831 21.8707 25.8545 21.8473 25.888 21.8473C25.9216 21.8472 25.993 21.8706 26.0692 21.9958C26.1428 22.1165 26.1964 22.2992 26.1965 22.5144Z" stroke="#BFBEBE" stroke-width="0.5"/>
<rect x="21.2962" y="21.1412" width="6.5316" height="0.305757" transform="rotate(-0.0314817 21.2962 21.1412)" stroke="#BFBEBE" stroke-width="0.305757"/>
<path d="M32.3702 10.2807C32.3704 10.6747 32.1207 10.9943 31.8124 10.9944C31.5042 10.9946 31.2541 10.6753 31.2539 10.2813C31.2537 9.88729 31.5034 9.56773 31.8116 9.56756C32.1199 9.5674 32.37 9.88667 32.3702 10.2807Z" fill="#BFBEBE"/>
<path d="M34.0446 10.2798C34.0448 10.6738 33.7951 10.9933 33.4869 10.9935C33.1786 10.9937 32.9285 10.6744 32.9283 10.2804C32.9281 9.88637 33.1778 9.56682 33.4861 9.56665C33.7943 9.56648 34.0444 9.88576 34.0446 10.2798Z" fill="#BFBEBE"/>
<path d="M30.069 12.5242C30.8839 14.1884 33.0015 16.5178 34.9529 12.5215" stroke="#BFBEBE"/>
<path d="M4.82713 6.46182C4.82635 5.0586 5.96326 3.92044 7.36648 3.91967L7.52938 3.91958C10.1527 3.91814 12.2806 6.04362 12.282 8.66697L12.2866 17.0164C12.2877 19.0747 10.6201 20.7441 8.5618 20.7453C6.50353 20.7464 4.83406 19.0788 4.83293 17.0205L4.82713 6.46182Z" stroke="#BFBEBE" stroke-width="0.5"/>
<path d="M7.50594 3.77153L7.50409 0.408203" stroke="#BFBEBE" stroke-width="0.5"/>
<path d="M7.50412 0.492249L9.52742 0.491137" stroke="#BFBEBE" stroke-width="0.5"/>
<path d="M9.45761 0.407104L9.45946 3.77044" stroke="#BFBEBE" stroke-width="0.5"/>
<path d="M10.2296 20.8942C10.1359 19.5354 10.0739 16.8379 10.5763 16.9192C11.0787 17.0004 11.0661 19.6028 10.9971 20.8938" stroke="#BFBEBE" stroke-width="0.5"/>
<path d="M10.2296 20.8942C10.1359 19.5354 10.0739 16.8379 10.5763 16.9192C11.0787 17.0004 11.0661 19.6028 10.9971 20.8938" stroke="#BFBEBE" stroke-width="0.5"/>
<path d="M7.43885 20.8957C7.34508 19.5369 7.28313 16.8395 7.78551 16.9207C8.28789 17.002 8.27537 19.6043 8.20631 20.8953" stroke="#BFBEBE" stroke-width="0.5"/>
<path d="M8.69471 20.8951C8.60094 19.5362 8.53899 16.8388 9.04137 16.92C9.54375 17.0013 9.53123 19.6036 9.46217 20.8947" stroke="#BFBEBE" stroke-width="0.5"/>
<path d="M6.01039 22.5255C6.01051 22.7406 5.95703 22.9234 5.88363 23.0442C5.80752 23.1694 5.73616 23.1929 5.70261 23.1929C5.66906 23.1929 5.59767 23.1695 5.52142 23.0444C5.44788 22.9237 5.39421 22.741 5.39409 22.5258C5.39397 22.3107 5.44745 22.1279 5.52085 22.0071C5.59696 21.8819 5.66832 21.8584 5.70187 21.8584C5.73543 21.8583 5.80681 21.8817 5.88306 22.0069C5.9566 22.1276 6.01027 22.3103 6.01039 22.5255Z" stroke="#BFBEBE" stroke-width="0.5"/>
<path d="M7.26622 22.5248C7.26634 22.7399 7.21286 22.9227 7.13946 23.0435C7.06335 23.1687 6.99199 23.1922 6.95844 23.1922C6.92488 23.1922 6.8535 23.1688 6.77725 23.0437C6.70371 22.923 6.65004 22.7403 6.64992 22.5251C6.6498 22.31 6.70328 22.1272 6.77668 22.0064C6.85279 21.8812 6.92415 21.8577 6.9577 21.8577C6.99125 21.8576 7.06264 21.881 7.13889 22.0062C7.21242 22.1269 7.2661 22.3096 7.26622 22.5248Z" stroke="#BFBEBE" stroke-width="0.5"/>
<path d="M11.4524 22.5225C11.4525 22.7376 11.399 22.9204 11.3256 23.0412C11.2495 23.1664 11.1781 23.1899 11.1446 23.1899C11.111 23.1899 11.0397 23.1665 10.9634 23.0414C10.8899 22.9207 10.8362 22.738 10.8361 22.5228C10.836 22.3077 10.8894 22.1249 10.9628 22.0041C11.0389 21.8789 11.1103 21.8554 11.1439 21.8554C11.1774 21.8554 11.2488 21.8787 11.325 22.0039C11.3986 22.1246 11.4523 22.3073 11.4524 22.5225Z" stroke="#BFBEBE" stroke-width="0.5"/>
<path d="M10.1965 22.5232C10.1967 22.7383 10.1432 22.9211 10.0698 23.0419C9.99368 23.1671 9.92232 23.1906 9.88876 23.1906C9.85521 23.1906 9.78382 23.1672 9.70758 23.0421C9.63404 22.9214 9.58036 22.7386 9.58025 22.5235C9.58013 22.3083 9.6336 22.1255 9.70701 22.0048C9.78312 21.8795 9.85448 21.8561 9.88803 21.856C9.92158 21.856 9.99297 21.8794 10.0692 22.0046C10.1428 22.1253 10.1964 22.308 10.1965 22.5232Z" stroke="#BFBEBE" stroke-width="0.5"/>
<rect x="5.29621" y="21.15" width="6.5316" height="0.305757" transform="rotate(-0.0314817 5.29621 21.15)" stroke="#BFBEBE" stroke-width="0.305757"/>
<path d="M16.3702 10.2895C16.3704 10.6835 16.1207 11.0031 15.8124 11.0032C15.5042 11.0034 15.2541 10.6841 15.2539 10.2901C15.2537 9.89608 15.5034 9.57652 15.8116 9.57635C16.1199 9.57618 16.37 9.89546 16.3702 10.2895Z" fill="#BFBEBE"/>
<path d="M18.0446 10.2886C18.0448 10.6826 17.7951 11.0021 17.4869 11.0023C17.1786 11.0025 16.9285 10.6832 16.9283 10.2892C16.9281 9.89516 17.1778 9.57561 17.4861 9.57544C17.7943 9.57527 18.0444 9.89455 18.0446 10.2886Z" fill="#BFBEBE"/>
<path d="M14.069 12.533C14.8839 14.1972 17.0015 16.5266 18.9529 12.5303" stroke="#BFBEBE"/>
<path d="M3.84196 33.4623C3.84119 32.0591 4.9781 30.921 6.38132 30.9202L6.54421 30.9201C9.16757 30.9187 11.2954 33.0441 11.2968 35.6675L11.3014 44.0169C11.3025 46.0752 9.6349 47.7447 7.57663 47.7458C5.51836 47.7469 3.84889 46.0793 3.84776 44.021L3.84196 33.4623Z" stroke="#BFBEBE" stroke-width="0.5"/>
<path d="M6.52077 30.7721L6.51892 27.4087" stroke="#BFBEBE" stroke-width="0.5"/>
<path d="M6.51895 27.4928L8.54225 27.4917" stroke="#BFBEBE" stroke-width="0.5"/>
<path d="M8.47244 27.4077L8.47429 30.771" stroke="#BFBEBE" stroke-width="0.5"/>
<path d="M9.24446 47.8948C9.15068 46.5359 9.08874 43.8385 9.59112 43.9197C10.0935 44.001 10.081 46.6033 10.0119 47.8943" stroke="#BFBEBE" stroke-width="0.5"/>
<path d="M9.24446 47.8948C9.15068 46.5359 9.08874 43.8385 9.59112 43.9197C10.0935 44.001 10.081 46.6033 10.0119 47.8943" stroke="#BFBEBE" stroke-width="0.5"/>
<path d="M6.45368 47.8963C6.35991 46.5375 6.29796 43.84 6.80035 43.9213C7.30273 44.0025 7.2902 46.6049 7.22114 47.8959" stroke="#BFBEBE" stroke-width="0.5"/>
<path d="M7.70954 47.8956C7.61577 46.5368 7.55382 43.8393 8.0562 43.9206C8.55859 44.0018 8.54606 46.6042 8.477 47.8952" stroke="#BFBEBE" stroke-width="0.5"/>
<path d="M5.02522 49.526C5.02534 49.7412 4.97186 49.924 4.89846 50.0447C4.82235 50.17 4.75099 50.1934 4.71744 50.1935C4.68389 50.1935 4.6125 50.1701 4.53625 50.0449C4.46272 49.9242 4.40904 49.7415 4.40892 49.5264C4.4088 49.3112 4.46228 49.1284 4.53568 49.0076C4.61179 48.8824 4.68315 48.8589 4.71671 48.8589C4.75026 48.8589 4.82164 48.8823 4.89789 49.0074C4.97143 49.1281 5.0251 49.3109 5.02522 49.526Z" stroke="#BFBEBE" stroke-width="0.5"/>
<path d="M6.28105 49.5253C6.28117 49.7405 6.22769 49.9233 6.15429 50.044C6.07818 50.1693 6.00682 50.1927 5.97327 50.1928C5.93972 50.1928 5.86833 50.1694 5.79208 50.0442C5.71855 49.9235 5.66487 49.7408 5.66475 49.5257C5.66463 49.3105 5.71811 49.1277 5.79151 49.0069C5.86762 48.8817 5.93898 48.8582 5.97253 48.8582C6.00609 48.8582 6.07747 48.8816 6.15372 49.0067C6.22726 49.1274 6.28093 49.3102 6.28105 49.5253Z" stroke="#BFBEBE" stroke-width="0.5"/>
<path d="M10.4672 49.523C10.4673 49.7382 10.4139 49.921 10.3404 50.0418C10.2643 50.167 10.193 50.1905 10.1594 50.1905C10.1259 50.1905 10.0545 50.1671 9.97824 50.042C9.9047 49.9212 9.85103 49.7385 9.85091 49.5234C9.85079 49.3082 9.90426 49.1254 9.97767 49.0046C10.0538 48.8794 10.1251 48.8559 10.1587 48.8559C10.1922 48.8559 10.2636 48.8793 10.3399 49.0044C10.4134 49.1251 10.4671 49.3079 10.4672 49.523Z" stroke="#BFBEBE" stroke-width="0.5"/>
<path d="M9.21138 49.5237C9.2115 49.7389 9.15802 49.9216 9.08462 50.0424C9.00851 50.1677 8.93715 50.1911 8.9036 50.1911C8.87004 50.1912 8.79866 50.1678 8.72241 50.0426C8.64887 49.9219 8.5952 49.7392 8.59508 49.524C8.59496 49.3089 8.64844 49.1261 8.72184 49.0053C8.79795 48.8801 8.86931 48.8566 8.90286 48.8566C8.93641 48.8566 9.0078 48.88 9.08405 49.0051C9.15758 49.1258 9.21126 49.3085 9.21138 49.5237Z" stroke="#BFBEBE" stroke-width="0.5"/>
<rect x="4.31104" y="48.1505" width="6.5316" height="0.305757" transform="rotate(-0.0314817 4.31104 48.1505)" stroke="#BFBEBE" stroke-width="0.305757"/>
<path d="M15.385 37.29C15.3852 37.684 15.1355 38.0036 14.8272 38.0037C14.519 38.0039 14.2689 37.6846 14.2687 37.2906C14.2685 36.8966 14.5182 36.577 14.8265 36.5769C15.1347 36.5767 15.3848 36.896 15.385 37.29Z" fill="#BFBEBE"/>
<path d="M17.0594 37.2891C17.0597 37.6831 16.8099 38.0027 16.5017 38.0028C16.1934 38.003 15.9434 37.6837 15.9431 37.2897C15.9429 36.8957 16.1926 36.5761 16.5009 36.576C16.8092 36.5758 17.0592 36.8951 17.0594 37.2891Z" fill="#BFBEBE"/>
<path d="M13.0839 39.5335C13.8987 41.1978 16.0164 43.5272 17.9677 39.5309" stroke="#BFBEBE"/>
<path d="M1.85844 63.4634C1.85767 62.0602 2.99458 60.9221 4.3978 60.9213L4.56069 60.9212C7.18405 60.9198 9.31186 63.0452 9.3133 65.6686L9.31789 74.018C9.31902 76.0763 7.65138 77.7458 5.59311 77.7469C3.53484 77.748 1.86537 76.0804 1.86424 74.0221L1.85844 63.4634Z" stroke="#BFBEBE" stroke-width="0.5"/>
<path d="M4.53725 60.7732L4.5354 57.4098" stroke="#BFBEBE" stroke-width="0.5"/>
<path d="M4.53543 57.4939L6.55873 57.4928" stroke="#BFBEBE" stroke-width="0.5"/>
<path d="M6.48892 57.4088L6.49077 60.7721" stroke="#BFBEBE" stroke-width="0.5"/>
<path d="M7.26094 77.8959C7.16716 76.537 7.10522 73.8396 7.6076 73.9208C8.10998 74.0021 8.09745 76.6044 8.02839 77.8954" stroke="#BFBEBE" stroke-width="0.5"/>
<path d="M7.26094 77.8959C7.16716 76.537 7.10522 73.8396 7.6076 73.9208C8.10998 74.0021 8.09745 76.6044 8.02839 77.8954" stroke="#BFBEBE" stroke-width="0.5"/>
<path d="M4.47016 77.8974C4.37639 76.5386 4.31444 73.8411 4.81682 73.9224C5.31921 74.0036 5.30668 76.606 5.23762 77.897" stroke="#BFBEBE" stroke-width="0.5"/>
<path d="M5.72602 77.8967C5.63225 76.5379 5.5703 73.8404 6.07268 73.9217C6.57506 74.0029 6.56254 76.6053 6.49348 77.8963" stroke="#BFBEBE" stroke-width="0.5"/>
<path d="M3.0417 79.5271C3.04182 79.7423 2.98834 79.9251 2.91494 80.0458C2.83883 80.1711 2.76747 80.1945 2.73392 80.1946C2.70037 80.1946 2.62898 80.1712 2.55273 80.046C2.4792 79.9253 2.42552 79.7426 2.4254 79.5275C2.42528 79.3123 2.47876 79.1295 2.55216 79.0087C2.62827 78.8835 2.69963 78.86 2.73318 78.86C2.76674 78.86 2.83812 78.8834 2.91437 79.0085C2.98791 79.1292 3.04158 79.312 3.0417 79.5271Z" stroke="#BFBEBE" stroke-width="0.5"/>
<path d="M4.29753 79.5264C4.29765 79.7416 4.24417 79.9244 4.17077 80.0451C4.09466 80.1704 4.0233 80.1938 3.98975 80.1939C3.9562 80.1939 3.88481 80.1705 3.80856 80.0453C3.73502 79.9246 3.68135 79.7419 3.68123 79.5268C3.68111 79.3116 3.73459 79.1288 3.80799 79.008C3.8841 78.8828 3.95546 78.8593 3.98901 78.8593C4.02256 78.8593 4.09395 78.8827 4.1702 79.0078C4.24374 79.1285 4.29741 79.3113 4.29753 79.5264Z" stroke="#BFBEBE" stroke-width="0.5"/>
<path d="M8.48369 79.5241C8.48381 79.7393 8.43033 79.9221 8.35693 80.0429C8.28082 80.1681 8.20946 80.1915 8.1759 80.1916C8.14235 80.1916 8.07096 80.1682 7.99472 80.0431C7.92118 79.9223 7.8675 79.7396 7.86739 79.5245C7.86727 79.3093 7.92074 79.1265 7.99415 79.0057C8.07026 78.8805 8.14162 78.857 8.17517 78.857C8.20872 78.857 8.28011 78.8804 8.35636 79.0055C8.42989 79.1262 8.48357 79.309 8.48369 79.5241Z" stroke="#BFBEBE" stroke-width="0.5"/>
<path d="M7.22786 79.5248C7.22798 79.74 7.1745 79.9227 7.1011 80.0435C7.02499 80.1688 6.95363 80.1922 6.92008 80.1922C6.88652 80.1923 6.81514 80.1689 6.73889 80.0437C6.66535 79.923 6.61168 79.7403 6.61156 79.5251C6.61144 79.31 6.66492 79.1272 6.73832 79.0064C6.81443 78.8812 6.88579 78.8577 6.91934 78.8577C6.95289 78.8577 7.02428 78.8811 7.10053 79.0062C7.17406 79.1269 7.22774 79.3096 7.22786 79.5248Z" stroke="#BFBEBE" stroke-width="0.5"/>
<rect x="2.32752" y="78.1516" width="6.5316" height="0.305757" transform="rotate(-0.0314817 2.32752 78.1516)" stroke="#BFBEBE" stroke-width="0.305757"/>
<path d="M13.4015 67.2911C13.4017 67.6851 13.152 68.0047 12.8437 68.0048C12.5355 68.005 12.2854 67.6857 12.2852 67.2917C12.285 66.8977 12.5347 66.5781 12.8429 66.578C13.1512 66.5778 13.4013 66.8971 13.4015 67.2911Z" fill="#BFBEBE"/>
<path d="M15.0759 67.2902C15.0761 67.6842 14.8264 68.0038 14.5182 68.0039C14.2099 68.0041 13.9598 67.6848 13.9596 67.2908C13.9594 66.8968 14.2091 66.5772 14.5174 66.5771C14.8256 66.5769 15.0757 66.8962 15.0759 67.2902Z" fill="#BFBEBE"/>
<path d="M11.1003 69.5346C11.9152 71.1989 14.0328 73.5283 15.9842 69.532" stroke="#BFBEBE"/>
<path d="M18.8573 61.4541C18.8566 60.0509 19.9935 58.9127 21.3967 58.9119L21.5596 58.9119C24.1829 58.9104 26.3108 61.0359 26.3122 63.6592L26.3168 72.0087C26.3179 74.0669 24.6503 75.7364 22.592 75.7376C20.5337 75.7387 18.8643 74.071 18.8631 72.0128L18.8573 61.4541Z" stroke="#BFBEBE" stroke-width="0.5"/>
<path d="M21.5361 58.7638L21.5343 55.4005" stroke="#BFBEBE" stroke-width="0.5"/>
<path d="M21.5343 55.4846L23.5576 55.4834" stroke="#BFBEBE" stroke-width="0.5"/>
<path d="M23.4878 55.3994L23.4897 58.7627" stroke="#BFBEBE" stroke-width="0.5"/>
<path d="M24.2598 75.8865C24.1661 74.5277 24.1041 71.8302 24.6065 71.9115C25.1089 71.9928 25.0964 74.5951 25.0273 75.8861" stroke="#BFBEBE" stroke-width="0.5"/>
<path d="M24.2598 75.8865C24.1661 74.5277 24.1041 71.8302 24.6065 71.9115C25.1089 71.9928 25.0964 74.5951 25.0273 75.8861" stroke="#BFBEBE" stroke-width="0.5"/>
<path d="M21.4691 75.8881C21.3753 74.5292 21.3133 71.8318 21.8157 71.913C22.3181 71.9943 22.3056 74.5967 22.2365 75.8877" stroke="#BFBEBE" stroke-width="0.5"/>
<path d="M22.7249 75.8874C22.6312 74.5285 22.5692 71.8311 23.0716 71.9123C23.574 71.9936 23.5614 74.596 23.4924 75.887" stroke="#BFBEBE" stroke-width="0.5"/>
<path d="M20.0406 77.5178C20.0407 77.7329 19.9872 77.9157 19.9138 78.0365C19.8377 78.1617 19.7664 78.1852 19.7328 78.1852C19.6993 78.1852 19.6279 78.1619 19.5516 78.0367C19.4781 77.916 19.4244 77.7333 19.4243 77.5181C19.4242 77.303 19.4777 77.1202 19.5511 76.9994C19.6272 76.8742 19.6985 76.8507 19.7321 76.8507C19.7656 76.8507 19.837 76.874 19.9133 76.9992C19.9868 77.1199 20.0405 77.3026 20.0406 77.5178Z" stroke="#BFBEBE" stroke-width="0.5"/>
<path d="M21.2964 77.5171C21.2966 77.7322 21.2431 77.915 21.1697 78.0358C21.0936 78.161 21.0222 78.1845 20.9886 78.1845C20.9551 78.1845 20.8837 78.1611 20.8075 78.036C20.7339 77.9153 20.6802 77.7326 20.6801 77.5174C20.68 77.3023 20.7335 77.1195 20.8069 76.9987C20.883 76.8735 20.9544 76.85 20.9879 76.85C21.0215 76.85 21.0929 76.8733 21.1691 76.9985C21.2426 77.1192 21.2963 77.3019 21.2964 77.5171Z" stroke="#BFBEBE" stroke-width="0.5"/>
<path d="M25.4826 77.5148C25.4827 77.7299 25.4292 77.9127 25.3558 78.0335C25.2797 78.1587 25.2084 78.1822 25.1748 78.1822C25.1413 78.1822 25.0699 78.1589 24.9936 78.0337C24.9201 77.913 24.8664 77.7303 24.8663 77.5151C24.8662 77.3 24.9196 77.1172 24.9931 76.9964C25.0692 76.8712 25.1405 76.8477 25.1741 76.8477C25.2076 76.8477 25.279 76.8711 25.3553 76.9962C25.4288 77.1169 25.4825 77.2996 25.4826 77.5148Z" stroke="#BFBEBE" stroke-width="0.5"/>
<path d="M24.2268 77.5155C24.2269 77.7306 24.1734 77.9134 24.1 78.0342C24.0239 78.1594 23.9525 78.1829 23.919 78.1829C23.8854 78.1829 23.814 78.1595 23.7378 78.0344C23.6643 77.9137 23.6106 77.731 23.6105 77.5158C23.6103 77.3006 23.6638 77.1179 23.7372 76.9971C23.8133 76.8718 23.8847 76.8484 23.9182 76.8484C23.9518 76.8483 24.0232 76.8717 24.0994 76.9969C24.173 77.1176 24.2266 77.3003 24.2268 77.5155Z" stroke="#BFBEBE" stroke-width="0.5"/>
<rect x="19.3264" y="76.1423" width="6.5316" height="0.305757" transform="rotate(-0.0314817 19.3264 76.1423)" stroke="#BFBEBE" stroke-width="0.305757"/>
<path d="M30.4004 65.2818C30.4006 65.6758 30.1509 65.9953 29.8426 65.9955C29.5344 65.9957 29.2843 65.6764 29.2841 65.2824C29.2839 64.8884 29.5336 64.5688 29.8418 64.5686C30.1501 64.5685 30.4002 64.8877 30.4004 65.2818Z" fill="#BFBEBE"/>
<path d="M32.0748 65.2808C32.075 65.6749 31.8253 65.9944 31.5171 65.9946C31.2088 65.9948 30.9587 65.6755 30.9585 65.2815C30.9583 64.8874 31.208 64.5679 31.5163 64.5677C31.8245 64.5675 32.0746 64.8868 32.0748 65.2808Z" fill="#BFBEBE"/>
<path d="M28.0992 67.5253C28.9141 69.1895 31.0317 71.5189 32.9831 67.5226" stroke="#BFBEBE"/>
<path d="M1.87272 89.4634C1.87195 88.0602 3.00886 86.9221 4.41208 86.9213L4.57498 86.9212C7.19833 86.9198 9.32614 89.0452 9.32759 91.6686L9.33217 100.018C9.3333 102.076 7.66566 103.746 5.60739 103.747C3.54912 103.748 1.87965 102.08 1.87852 100.022L1.87272 89.4634Z" stroke="#BFBEBE" stroke-width="0.5"/>
<path d="M4.55153 86.7732L4.54968 83.4098" stroke="#BFBEBE" stroke-width="0.5"/>
<path d="M4.54971 83.4939L6.57301 83.4928" stroke="#BFBEBE" stroke-width="0.5"/>
<path d="M6.5032 83.4088L6.50505 86.7721" stroke="#BFBEBE" stroke-width="0.5"/>
<path d="M7.27522 103.896C7.18145 102.537 7.1195 99.8396 7.62188 99.9208C8.12426 100.002 8.11174 102.604 8.04268 103.895" stroke="#BFBEBE" stroke-width="0.5"/>
<path d="M7.27522 103.896C7.18145 102.537 7.1195 99.8396 7.62188 99.9208C8.12426 100.002 8.11174 102.604 8.04268 103.895" stroke="#BFBEBE" stroke-width="0.5"/>
<path d="M4.48445 103.897C4.39067 102.539 4.32873 99.8411 4.83111 99.9224C5.33349 100.004 5.32096 102.606 5.2519 103.897" stroke="#BFBEBE" stroke-width="0.5"/>
<path d="M5.74031 103.897C5.64653 102.538 5.58459 99.8404 6.08697 99.9217C6.58935 100.003 6.57682 102.605 6.50776 103.896" stroke="#BFBEBE" stroke-width="0.5"/>
<path d="M3.05598 105.527C3.0561 105.742 3.00263 105.925 2.92922 106.046C2.85311 106.171 2.78175 106.195 2.7482 106.195C2.71465 106.195 2.64326 106.171 2.56702 106.046C2.49348 105.925 2.4398 105.743 2.43968 105.527C2.43956 105.312 2.49304 105.13 2.56645 105.009C2.64255 104.884 2.71392 104.86 2.74747 104.86C2.78102 104.86 2.85241 104.883 2.92865 105.009C3.00219 105.129 3.05587 105.312 3.05598 105.527Z" stroke="#BFBEBE" stroke-width="0.5"/>
<path d="M4.31181 105.526C4.31193 105.742 4.25846 105.924 4.18505 106.045C4.10894 106.17 4.03758 106.194 4.00403 106.194C3.97048 106.194 3.89909 106.17 3.82284 106.045C3.74931 105.925 3.69563 105.742 3.69551 105.527C3.69539 105.312 3.74887 105.129 3.82227 105.008C3.89838 104.883 3.96974 104.859 4.0033 104.859C4.03685 104.859 4.10824 104.883 4.18448 105.008C4.25802 105.129 4.3117 105.311 4.31181 105.526Z" stroke="#BFBEBE" stroke-width="0.5"/>
<path d="M8.49797 105.524C8.49809 105.739 8.44461 105.922 8.37121 106.043C8.2951 106.168 8.22374 106.192 8.19019 106.192C8.15663 106.192 8.08525 106.168 8.009 106.043C7.93546 105.922 7.88179 105.74 7.88167 105.524C7.88155 105.309 7.93503 105.127 8.00843 105.006C8.08454 104.881 8.1559 104.857 8.18945 104.857C8.223 104.857 8.29439 104.88 8.37064 105.006C8.44418 105.126 8.49785 105.309 8.49797 105.524Z" stroke="#BFBEBE" stroke-width="0.5"/>
<path d="M7.24214 105.525C7.24226 105.74 7.18878 105.923 7.11538 106.044C7.03927 106.169 6.96791 106.192 6.93436 106.192C6.90081 106.192 6.82942 106.169 6.75317 106.044C6.67964 105.923 6.62596 105.74 6.62584 105.525C6.62572 105.31 6.6792 105.127 6.7526 105.006C6.82871 104.881 6.90007 104.858 6.93362 104.858C6.96718 104.858 7.03856 104.881 7.11481 105.006C7.18835 105.127 7.24202 105.31 7.24214 105.525Z" stroke="#BFBEBE" stroke-width="0.5"/>
<rect x="2.34181" y="104.152" width="6.5316" height="0.305757" transform="rotate(-0.0314817 2.34181 104.152)" stroke="#BFBEBE" stroke-width="0.305757"/>
<path d="M13.4158 93.2911C13.416 93.6851 13.1663 94.0047 12.858 94.0048C12.5497 94.005 12.2997 93.6857 12.2995 93.2917C12.2992 92.8977 12.549 92.5781 12.8572 92.578C13.1655 92.5778 13.4156 92.8971 13.4158 93.2911Z" fill="#BFBEBE"/>
<path d="M15.0902 93.2902C15.0904 93.6842 14.8407 94.0038 14.5324 94.0039C14.2242 94.0041 13.9741 93.6848 13.9739 93.2908C13.9737 92.8968 14.2234 92.5772 14.5317 92.5771C14.8399 92.5769 15.09 92.8962 15.0902 93.2902Z" fill="#BFBEBE"/>
<path d="M11.1146 95.5346C11.9295 97.1989 14.0471 99.5283 15.9984 95.532" stroke="#BFBEBE"/>
<path d="M23.8716 87.4514C23.8708 86.0481 25.0078 84.91 26.411 84.9092L26.5739 84.9091C29.1972 84.9077 31.325 87.0332 31.3265 89.6565L31.3311 98.0059C31.3322 100.064 29.6646 101.734 27.6063 101.735C25.548 101.736 23.8786 100.068 23.8774 98.01L23.8716 87.4514Z" stroke="#BFBEBE" stroke-width="0.5"/>
<path d="M26.5504 84.7611L26.5486 81.3977" stroke="#BFBEBE" stroke-width="0.5"/>
<path d="M26.5486 81.4818L28.5719 81.4807" stroke="#BFBEBE" stroke-width="0.5"/>
<path d="M28.5021 81.3967L28.504 84.76" stroke="#BFBEBE" stroke-width="0.5"/>
<path d="M29.2741 101.884C29.1803 100.525 29.1184 97.8275 29.6208 97.9087C30.1232 97.99 30.1106 100.592 30.0416 101.883" stroke="#BFBEBE" stroke-width="0.5"/>
<path d="M29.2741 101.884C29.1803 100.525 29.1184 97.8275 29.6208 97.9087C30.1232 97.99 30.1106 100.592 30.0416 101.883" stroke="#BFBEBE" stroke-width="0.5"/>
<path d="M26.4833 101.885C26.3896 100.526 26.3276 97.829 26.83 97.9103C27.3324 97.9916 27.3199 100.594 27.2508 101.885" stroke="#BFBEBE" stroke-width="0.5"/>
<path d="M27.7392 101.885C27.6454 100.526 27.5835 97.8283 28.0859 97.9096C28.5882 97.9909 28.5757 100.593 28.5067 101.884" stroke="#BFBEBE" stroke-width="0.5"/>
<path d="M25.0549 103.515C25.055 103.73 25.0015 103.913 24.9281 104.034C24.852 104.159 24.7807 104.182 24.7471 104.182C24.7136 104.182 24.6422 104.159 24.5659 104.034C24.4924 103.913 24.4387 103.731 24.4386 103.515C24.4385 103.3 24.4919 103.117 24.5653 102.997C24.6415 102.871 24.7128 102.848 24.7464 102.848C24.7799 102.848 24.8513 102.871 24.9276 102.996C25.0011 103.117 25.0548 103.3 25.0549 103.515Z" stroke="#BFBEBE" stroke-width="0.5"/>
<path d="M26.3107 103.514C26.3108 103.729 26.2574 103.912 26.184 104.033C26.1078 104.158 26.0365 104.182 26.0029 104.182C25.9694 104.182 25.898 104.158 25.8217 104.033C25.7482 103.913 25.6945 103.73 25.6944 103.515C25.6943 103.3 25.7478 103.117 25.8212 102.996C25.8973 102.871 25.9686 102.847 26.0022 102.847C26.0357 102.847 26.1071 102.871 26.1834 102.996C26.2569 103.116 26.3106 103.299 26.3107 103.514Z" stroke="#BFBEBE" stroke-width="0.5"/>
<path d="M30.4969 103.512C30.497 103.727 30.4435 103.91 30.3701 104.031C30.294 104.156 30.2226 104.179 30.1891 104.179C30.1555 104.18 30.0841 104.156 30.0079 104.031C29.9344 103.91 29.8807 103.728 29.8806 103.512C29.8805 103.297 29.9339 103.114 30.0073 102.994C30.0834 102.868 30.1548 102.845 30.1884 102.845C30.2219 102.845 30.2933 102.868 30.3695 102.993C30.4431 103.114 30.4968 103.297 30.4969 103.512Z" stroke="#BFBEBE" stroke-width="0.5"/>
<path d="M29.241 103.513C29.2412 103.728 29.1877 103.911 29.1143 104.031C29.0382 104.157 28.9668 104.18 28.9333 104.18C28.8997 104.18 28.8283 104.157 28.7521 104.032C28.6785 103.911 28.6249 103.728 28.6247 103.513C28.6246 103.298 28.6781 103.115 28.7515 102.994C28.8276 102.869 28.899 102.846 28.9325 102.846C28.9661 102.846 29.0375 102.869 29.1137 102.994C29.1872 103.115 29.2409 103.298 29.241 103.513Z" stroke="#BFBEBE" stroke-width="0.5"/>
<rect x="24.3407" y="102.14" width="6.5316" height="0.305757" transform="rotate(-0.0314817 24.3407 102.14)" stroke="#BFBEBE" stroke-width="0.305757"/>
<path d="M35.4147 91.279C35.4149 91.673 35.1652 91.9926 34.8569 91.9928C34.5487 91.9929 34.2986 91.6736 34.2984 91.2796C34.2981 90.8856 34.5479 90.5661 34.8561 90.5659C35.1644 90.5657 35.4145 90.885 35.4147 91.279Z" fill="#BFBEBE"/>
<path d="M37.0891 91.2781C37.0893 91.6721 36.8396 91.9917 36.5313 91.9918C36.2231 91.992 35.973 91.6727 35.9728 91.2787C35.9726 90.8847 36.2223 90.5651 36.5306 90.565C36.8388 90.5648 37.0889 90.8841 37.0891 91.2781Z" fill="#BFBEBE"/>
<path d="M33.1135 93.5226C33.9284 95.1868 36.046 97.5162 37.9973 93.5199" stroke="#BFBEBE"/>
<path d="M45.8722 88.4392C45.8714 87.036 47.0083 85.8979 48.4115 85.8971L48.5744 85.897C51.1978 85.8956 53.3256 88.021 53.327 90.6444L53.3316 98.9938C53.3328 101.052 51.6651 102.722 49.6068 102.723C47.5486 102.724 45.8791 101.056 45.878 98.9979L45.8722 88.4392Z" stroke="#BFBEBE" stroke-width="0.5"/>
<path d="M48.551 85.749L48.5491 82.3856" stroke="#BFBEBE" stroke-width="0.5"/>
<path d="M48.5492 82.4697L50.5725 82.4686" stroke="#BFBEBE" stroke-width="0.5"/>
<path d="M50.5027 82.3846L50.5045 85.7479" stroke="#BFBEBE" stroke-width="0.5"/>
<path d="M51.2747 102.872C51.1809 101.513 51.1189 98.8154 51.6213 98.8966C52.1237 98.9779 52.1112 101.58 52.0421 102.871" stroke="#BFBEBE" stroke-width="0.5"/>
<path d="M51.2747 102.872C51.1809 101.513 51.1189 98.8154 51.6213 98.8966C52.1237 98.9779 52.1112 101.58 52.0421 102.871" stroke="#BFBEBE" stroke-width="0.5"/>
<path d="M48.4839 102.873C48.3901 101.514 48.3282 98.8169 48.8306 98.8982C49.3329 98.9794 49.3204 101.582 49.2514 102.873" stroke="#BFBEBE" stroke-width="0.5"/>
<path d="M49.7398 102.873C49.646 101.514 49.584 98.8162 50.0864 98.8975C50.5888 98.9787 50.5763 101.581 50.5072 102.872" stroke="#BFBEBE" stroke-width="0.5"/>
<path d="M47.0554 104.503C47.0556 104.718 47.0021 104.901 46.9287 105.022C46.8526 105.147 46.7812 105.17 46.7477 105.17C46.7141 105.17 46.6427 105.147 46.5665 105.022C46.4929 104.901 46.4393 104.718 46.4391 104.503C46.439 104.288 46.4925 104.105 46.5659 103.985C46.642 103.859 46.7134 103.836 46.7469 103.836C46.7805 103.836 46.8519 103.859 46.9281 103.984C47.0016 104.105 47.0553 104.288 47.0554 104.503Z" stroke="#BFBEBE" stroke-width="0.5"/>
<path d="M48.3113 104.502C48.3114 104.717 48.2579 104.9 48.1845 105.021C48.1084 105.146 48.037 105.17 48.0035 105.17C47.9699 105.17 47.8985 105.146 47.8223 105.021C47.7488 104.9 47.6951 104.718 47.695 104.503C47.6948 104.287 47.7483 104.105 47.8217 103.984C47.8978 103.859 47.9692 103.835 48.0027 103.835C48.0363 103.835 48.1077 103.858 48.1839 103.984C48.2575 104.104 48.3111 104.287 48.3113 104.502Z" stroke="#BFBEBE" stroke-width="0.5"/>
<path d="M52.4974 104.5C52.4975 104.715 52.4441 104.898 52.3707 105.019C52.2946 105.144 52.2232 105.167 52.1896 105.167C52.1561 105.167 52.0847 105.144 52.0085 105.019C51.9349 104.898 51.8812 104.715 51.8811 104.5C51.881 104.285 51.9345 104.102 52.0079 103.982C52.084 103.856 52.1554 103.833 52.1889 103.833C52.2225 103.833 52.2938 103.856 52.3701 103.981C52.4436 104.102 52.4973 104.285 52.4974 104.5Z" stroke="#BFBEBE" stroke-width="0.5"/>
<path d="M51.2416 104.501C51.2417 104.716 51.1882 104.899 51.1148 105.019C51.0387 105.145 50.9674 105.168 50.9338 105.168C50.9003 105.168 50.8289 105.145 50.7526 105.02C50.6791 104.899 50.6254 104.716 50.6253 104.501C50.6252 104.286 50.6786 104.103 50.7521 103.982C50.8282 103.857 50.8995 103.834 50.9331 103.833C50.9666 103.833 51.038 103.857 51.1143 103.982C51.1878 104.103 51.2415 104.285 51.2416 104.501Z" stroke="#BFBEBE" stroke-width="0.5"/>
<rect x="46.3413" y="103.127" width="6.5316" height="0.305757" transform="rotate(-0.0314817 46.3413 103.127)" stroke="#BFBEBE" stroke-width="0.305757"/>
<path d="M57.4152 92.2669C57.4154 92.6609 57.1657 92.9805 56.8575 92.9806C56.5492 92.9808 56.2991 92.6615 56.2989 92.2675C56.2987 91.8735 56.5484 91.5539 56.8567 91.5538C57.1649 91.5536 57.415 91.8729 57.4152 92.2669Z" fill="#BFBEBE"/>
<path d="M59.0897 92.266C59.0899 92.66 58.8402 92.9796 58.5319 92.9797C58.2236 92.9799 57.9736 92.6606 57.9734 92.2666C57.9731 91.8726 58.2229 91.553 58.5311 91.5529C58.8394 91.5527 59.0894 91.872 59.0897 92.266Z" fill="#BFBEBE"/>
<path d="M55.1141 94.5104C55.929 96.1747 58.0466 98.5041 59.9979 94.5078" stroke="#BFBEBE"/>
<defs>
<filter id="filter0_d_3_598" x="91.5919" y="27.1911" width="22.825" height="31.2018" filterUnits="userSpaceOnUse" color-interpolation-filters="sRGB">
<feFlood flood-opacity="0" result="BackgroundImageFix"/>
<feColorMatrix in="SourceAlpha" type="matrix" values="0 0 0 0 0 0 0 0 0 0 0 0 0 0 0 0 0 0 127 0" result="hardAlpha"/>
<feOffset dy="4"/>
<feGaussianBlur stdDeviation="2"/>
<feComposite in2="hardAlpha" operator="out"/>
<feColorMatrix type="matrix" values="0 0 0 0 0 0 0 0 0 0 0 0 0 0 0 0 0 0 0.25 0"/>
<feBlend mode="normal" in2="BackgroundImageFix" result="effect1_dropShadow_3_598"/>
<feBlend mode="normal" in="SourceGraphic" in2="effect1_dropShadow_3_598" result="shape"/>
</filter>
</defs>
</svg>
