<?xml version="1.0" encoding="utf-8"?>
<!-- Generator: Adobe Illustrator 25.2.3, SVG Export Plug-In . SVG Version: 6.00 Build 0)  -->
<svg version="1.1" id="Layer_1" xmlns="http://www.w3.org/2000/svg" xmlns:xlink="http://www.w3.org/1999/xlink" x="0px" y="0px"
	 viewBox="0 0 100 100" style="enable-background:new 0 0 100 100;" xml:space="preserve">
<style type="text/css">
	.st0{fill:#141516;}
	.st1{fill:#B7CDE0;}
	.st2{font-family:'Bangers-Regular';}
	.st3{font-size:15.7155px;}
	.st4{fill:none;}
	.st5{fill:none;stroke:#43BDD7;stroke-width:3;stroke-miterlimit:10;}
</style>
<g>
	<polygon class="st0" points="9.64,40.67 23.8,66.68 88.14,53.67 88.14,40.67 	"/>
	<polyline class="st1" points="22.08,38.42 32.49,15.73 41.65,15.73 33.74,38.42 	"/>
	<polygon class="st1" points="44.66,11.24 35.79,37.98 86.22,38.46 84.5,26.82 	"/>
	<polygon class="st1" points="79.12,23.15 79.63,11.61 77.53,10.96 75.09,10.21 73.79,15.66 73.54,21.44 	"/>
	<polygon class="st1" points="41.65,11.16 35.79,8.32 33.84,12.19 41.65,14.12 	"/>
	<text transform="matrix(0.8607 0 0 1 10.8643 87.9033)" class="st2 st3">The Cruise Tour</text>
	<rect x="-12.73" y="259.81" class="st4" width="2.44" height="15.05"/>
	<rect x="10.86" y="75.95" class="st4" width="0.41" height="9.36"/>
	<rect x="145.51" y="160.97" class="st4" width="5.29" height="4.07"/>
</g>
<path class="st5" d="M12.08,56.65l9.36,0.47l-2.64-5.97l-2.03,18.17l5.9-19.32l-2.64,20.2l0.41-9.15l5.9,0.2v-9.15L23.4,69.87
	l9.76-13.29l-6.31,0.2l5.97,4.68l-5.08,0.54l1.29-10.24l-3.47,15.77l5.37-2.14l8.68-5.54c0,0-1.19-5.72-4.02-1.38
	c0,0-3.57,6.1-0.32,8.47c0,0,0.07,0.68,2.98-4.14s2.85-10.37,2.85-10.37l-1.97,16.34l1.97-12.41c0,0,4.14-0.41,3.46,3.39L42,61.33
	l-1.11,0.68l3.19,6.1l3.25-14.31c0,0-3.95,15.02-0.34,12.75c0,0,2.17,0.2,3.39-12.07s2.51-0.27,2.51-0.27l-2.1,16.81l8.27-11.46
	c0,0-0.2-5.08-3.12-2.03c0,0-4.14,1.49,2.1,5.29c0,0-0.14,7.12-4.81,0.81c-4.68-6.31,9.9-11.73,9.9-11.73l1.9,4.68l0.68,0.88
	l-4.75-0.54l4.75,4l-5.42,0.68l2.03-12.34L59.4,66.96l5.9-1.76l1.29-8.07l6.17-0.2l-3.05-4.07l-2.1,16.88l8.68-12.88
	c0,0-6.92,5.69-3.19,9.69c0,0,4.74,1.08,4.17-9.9c-0.57-10.98,3.36-2.71,3.36-2.71s-4.02,14.51-0.32,13.02c0,0,3.26-1.69,3.04-13.36
	c-0.22-11.66,0.77,4.02,0.77,4.02s12.17-2.87,0.91,4.66l1.36-9.08l-3.03,15.59l0.96-8.93l6.01,9.33"/>
</svg>
